<svg width="24" height="24" viewBox="0 0 24 24" fill="none" xmlns="http://www.w3.org/2000/svg">
<path d="M22.937 1.238C23.361 1.583 23.743 1.955 23.841 2.518C23.86 2.772 23.795 2.981 23.713 3.218C23.696 3.268 23.696 3.268 23.678 3.319C23.559 3.668 23.433 4.015 23.305 4.36C23.292 4.393 23.28 4.426 23.268 4.46C22.636 6.17 21.983 7.876 21.222 9.533C21.173 9.637 21.173 9.637 21.156 9.749C21.188 9.762 21.219 9.776 21.251 9.79C21.528 9.912 21.805 10.035 22.081 10.158C22.192 10.208 22.303 10.257 22.414 10.306C22.934 10.534 23.308 10.754 23.539 11.302C23.61 11.504 23.644 11.755 23.586 11.964C23.57 12.037 23.57 12.094 23.576 12.168C23.577 12.194 23.579 12.22 23.581 12.247C23.583 12.275 23.585 12.302 23.587 12.331C23.6 12.552 23.599 12.762 23.577 12.983C23.568 13.119 23.583 13.251 23.597 13.387C23.605 13.527 23.59 13.661 23.576 13.799C23.57 13.906 23.579 14.004 23.591 14.111C23.622 14.458 23.515 14.731 23.317 15.012C23.194 15.151 23.064 15.28 22.932 15.41C22.894 15.447 22.857 15.485 22.819 15.522C22.741 15.6 22.662 15.678 22.583 15.755C22.483 15.854 22.383 15.954 22.283 16.053C22.187 16.149 22.091 16.244 21.994 16.339C21.976 16.357 21.958 16.375 21.94 16.394C21.62 16.711 21.62 16.711 21.473 16.836C21.314 16.972 21.169 17.121 21.022 17.269C20.969 17.323 20.916 17.376 20.863 17.43C20.712 17.581 20.561 17.733 20.41 17.885C20.317 17.978 20.225 18.071 20.132 18.164C20.096 18.2 20.061 18.235 20.026 18.271C19.977 18.32 19.928 18.369 19.879 18.419C19.851 18.447 19.823 18.475 19.794 18.504C19.727 18.564 19.727 18.564 19.663 18.564C19.663 18.584 19.663 18.605 19.663 18.627C19.622 18.668 19.622 18.668 19.561 18.718C19.389 18.864 19.231 19.023 19.073 19.183C19.017 19.239 18.961 19.294 18.906 19.35C18.788 19.468 18.67 19.587 18.552 19.705C18.415 19.842 18.278 19.98 18.141 20.117C18.086 20.171 18.032 20.226 17.978 20.281C17.825 20.434 17.671 20.583 17.506 20.724C17.368 20.847 17.239 20.98 17.109 21.111C17.054 21.166 17 21.221 16.945 21.275C16.829 21.391 16.714 21.507 16.598 21.623C16.464 21.758 16.329 21.893 16.195 22.027C16.142 22.081 16.088 22.134 16.035 22.188C15.88 22.343 15.725 22.494 15.558 22.637C15.465 22.718 15.38 22.806 15.294 22.895C15.256 22.934 15.217 22.973 15.179 23.011C15.12 23.072 15.061 23.132 15.003 23.192C14.633 23.573 14.3 23.853 13.748 23.872C13.351 23.877 13.07 23.806 12.731 23.593C12.71 23.579 12.687 23.565 12.665 23.551C12.396 23.381 12.134 23.203 11.871 23.024C11.816 22.987 11.761 22.95 11.706 22.913C11.591 22.835 11.475 22.757 11.36 22.679C11.09 22.497 10.819 22.314 10.548 22.132C10.464 22.075 10.38 22.018 10.296 21.962C10.026 21.78 9.75599 21.599 9.48499 21.419C9.14099 21.19 8.79699 20.959 8.45399 20.728C7.99999 20.422 7.99999 20.422 7.54499 20.118C7.20699 19.893 6.86999 19.666 6.53399 19.439C6.23799 19.239 5.94299 19.04 5.64599 18.843C5.32899 18.633 5.01399 18.419 4.69799 18.207C4.37999 17.992 4.06199 17.778 3.74199 17.566C3.41199 17.347 3.08399 17.125 2.75499 16.903C2.34599 16.627 1.93599 16.353 1.52499 16.08C1.40699 16.002 1.28899 15.923 1.17199 15.845C1.13399 15.819 1.09499 15.793 1.05699 15.768C0.999992 15.73 0.942992 15.692 0.885992 15.653C0.835992 15.62 0.835992 15.62 0.785992 15.587C0.682992 15.507 0.587992 15.425 0.554992 15.296C0.556992 15.14 0.582992 15.062 0.698992 14.949C0.750992 14.905 0.802992 14.863 0.857992 14.822C0.839992 14.807 0.821992 14.791 0.802992 14.776C0.779992 14.756 0.756992 14.736 0.732992 14.715C0.708992 14.695 0.685992 14.675 0.661992 14.655C0.571992 14.571 0.571992 14.542 0.565992 14.414C0.563992 14.31 0.583992 14.246 0.634992 14.156C0.614992 14.14 0.594992 14.123 0.573992 14.106C0.270992 13.849 0.0309924 13.543 -0.0100076 13.138C-0.0210076 12.832 0.0329924 12.597 0.243992 12.369C0.443992 12.185 0.653992 12.115 0.920992 12.095C0.917992 12.065 0.914992 12.035 0.910992 12.004C0.911992 11.786 1.03899 11.59 1.18299 11.433C1.36299 11.268 1.57099 11.196 1.81099 11.176C1.81299 11.153 1.81499 11.131 1.81799 11.108C1.85699 10.828 1.95499 10.681 2.15399 10.486C2.33299 10.36 2.50699 10.265 2.73199 10.288C2.73299 10.27 2.73399 10.252 2.73399 10.234C2.75399 9.965 2.84499 9.763 3.04399 9.578C3.27699 9.406 3.52599 9.34 3.81199 9.368C3.81299 9.343 3.81499 9.317 3.81599 9.291C3.87799 9.037 4.03099 8.876 4.24899 8.74C4.38699 8.667 4.51499 8.629 4.66999 8.607C4.67599 8.567 4.68299 8.526 4.68999 8.484C4.75799 8.188 4.90799 7.988 5.16399 7.825C5.28499 7.759 5.39699 7.72 5.53699 7.719C5.61499 7.717 5.67599 7.714 5.74999 7.688C5.79499 7.622 5.81799 7.557 5.84499 7.481C5.92599 7.28 6.08699 7.132 6.28299 7.045C6.40999 7.003 6.53899 6.979 6.67099 6.958C6.66799 6.928 6.66399 6.898 6.66099 6.867C6.66199 6.671 6.75999 6.5 6.88599 6.354C7.07499 6.176 7.29299 6.068 7.55399 6.067C7.62499 6.065 7.62499 6.065 7.68699 6.039C7.74199 5.963 7.77499 5.887 7.81099 5.801C7.85699 5.698 7.91899 5.636 8.00499 5.563C8.02999 5.541 8.05499 5.519 8.08099 5.496C8.24599 5.378 8.40799 5.33 8.60899 5.31C8.61199 5.276 8.61199 5.276 8.61599 5.242C8.65799 4.936 8.78799 4.75 9.02599 4.557C9.28399 4.383 9.60599 4.362 9.90599 4.409C10.346 4.512 10.696 4.703 10.991 5.056C11.007 5.086 11.023 5.116 11.039 5.147C11.133 5.287 11.278 5.328 11.43 5.387C11.461 5.399 11.492 5.412 11.524 5.425C11.626 5.465 11.729 5.505 11.831 5.545C11.902 5.574 11.973 5.602 12.044 5.63C12.187 5.688 12.331 5.744 12.474 5.801C12.721 5.898 12.967 5.998 13.212 6.098C13.282 6.126 13.352 6.154 13.422 6.182C13.978 6.407 14.534 6.635 15.089 6.863C15.094 6.846 15.1 6.829 15.105 6.812C15.166 6.625 15.236 6.443 15.311 6.261C15.324 6.231 15.336 6.201 15.349 6.17C15.389 6.072 15.43 5.973 15.47 5.874C15.499 5.805 15.527 5.735 15.556 5.666C15.77 5.145 15.985 4.624 16.2 4.104C16.362 3.715 16.522 3.326 16.681 2.936C16.717 2.849 16.752 2.762 16.788 2.675C16.812 2.618 16.835 2.561 16.858 2.505C16.87 2.477 16.881 2.449 16.893 2.421C16.961 2.254 17.029 2.087 17.096 1.92C17.139 1.814 17.182 1.709 17.225 1.603C17.245 1.554 17.264 1.505 17.284 1.456C17.387 1.196 17.487 0.972 17.694 0.775C17.718 0.749 17.742 0.722 17.767 0.695C19.032 -0.614 21.703 0.278 22.937 1.238ZM19.25 0.807C19.25 0.818 19.25 0.828 19.25 0.839C19.418 0.839 19.586 0.839 19.759 0.839C19.759 0.828 19.759 0.818 19.759 0.807C19.591 0.807 19.423 0.807 19.25 0.807ZM18.996 0.839C18.996 0.849 18.996 0.86 18.996 0.87C19.07 0.87 19.143 0.87 19.219 0.87C19.219 0.86 19.219 0.85 19.219 0.839C19.145 0.839 19.072 0.839 18.996 0.839ZM19.759 0.839C19.759 0.849 19.759 0.86 19.759 0.87C19.843 0.87 19.927 0.87 20.013 0.87C20.013 0.86 20.013 0.85 20.013 0.839C19.929 0.839 19.845 0.839 19.759 0.839ZM18.869 0.87C18.996 0.902 18.996 0.902 18.996 0.902L18.869 0.87ZM20.076 0.87C20.076 0.881 20.076 0.891 20.076 0.902C20.139 0.902 20.202 0.902 20.267 0.902C20.267 0.892 20.267 0.881 20.267 0.87C20.204 0.87 20.141 0.87 20.076 0.87ZM20.267 0.902C20.267 0.913 20.267 0.923 20.267 0.934C20.319 0.934 20.372 0.934 20.426 0.934C20.426 0.923 20.426 0.913 20.426 0.902C20.373 0.902 20.321 0.902 20.267 0.902ZM20.426 0.934C20.553 0.966 20.553 0.966 20.553 0.966L20.426 0.934ZM20.553 0.966C20.68 0.997 20.68 0.997 20.68 0.997L20.553 0.966ZM18.456 1.061C18.456 1.092 18.456 1.124 18.456 1.156C18.477 1.124 18.498 1.093 18.52 1.061C18.499 1.061 18.478 1.061 18.456 1.061ZM18.329 1.188C18.319 1.208 18.308 1.229 18.298 1.251C18.329 1.241 18.36 1.23 18.393 1.219C18.372 1.209 18.351 1.198 18.329 1.188ZM18.202 1.314C18.202 1.367 18.202 1.419 18.202 1.473C18.213 1.473 18.223 1.473 18.234 1.473C18.234 1.421 18.234 1.368 18.234 1.314C18.223 1.314 18.213 1.314 18.202 1.314ZM20.076 1.314C20.076 1.325 20.076 1.335 20.076 1.346C20.139 1.346 20.202 1.346 20.267 1.346C20.267 1.336 20.267 1.325 20.267 1.314C20.204 1.314 20.141 1.314 20.076 1.314ZM20.394 1.314C20.394 1.325 20.394 1.335 20.394 1.346C20.478 1.346 20.562 1.346 20.648 1.346C20.648 1.336 20.648 1.325 20.648 1.314C20.564 1.314 20.48 1.314 20.394 1.314ZM21.728 1.378C21.739 1.399 21.749 1.42 21.76 1.441C21.781 1.431 21.802 1.42 21.823 1.41C21.792 1.399 21.761 1.389 21.728 1.378ZM18.234 1.473C18.266 1.568 18.266 1.568 18.266 1.568L18.234 1.473ZM18.266 1.568C18.298 1.631 18.298 1.631 18.298 1.631L18.266 1.568ZM19.695 1.568C19.727 1.631 19.727 1.631 19.727 1.631L19.695 1.568ZM18.298 1.631C18.329 1.695 18.329 1.695 18.329 1.695L18.298 1.631ZM19.663 1.631C19.663 1.726 19.663 1.82 19.663 1.917C19.674 1.917 19.684 1.917 19.695 1.917C19.695 1.823 19.695 1.729 19.695 1.631C19.685 1.631 19.674 1.631 19.663 1.631ZM21.411 1.663C21.431 1.684 21.452 1.705 21.474 1.727C21.474 1.706 21.474 1.685 21.474 1.663C21.453 1.663 21.432 1.663 21.411 1.663ZM18.361 1.727C18.393 1.79 18.393 1.79 18.393 1.79L18.361 1.727ZM18.424 1.822C18.435 1.853 18.445 1.885 18.456 1.917C18.456 1.885 18.456 1.854 18.456 1.822C18.446 1.822 18.435 1.822 18.424 1.822ZM21.601 1.822C21.612 1.853 21.622 1.885 21.633 1.917C21.633 1.885 21.633 1.854 21.633 1.822C21.622 1.822 21.612 1.822 21.601 1.822ZM19.695 1.917C19.727 1.98 19.727 1.98 19.727 1.98L19.695 1.917ZM21.665 1.917C21.697 1.98 21.697 1.98 21.697 1.98L21.665 1.917ZM19.727 1.98C19.759 2.044 19.759 2.044 19.759 2.044L19.727 1.98ZM21.697 1.98C21.728 2.044 21.728 2.044 21.728 2.044L21.697 1.98ZM21.728 2.044C21.728 2.127 21.728 2.211 21.728 2.297C21.739 2.297 21.749 2.297 21.76 2.297C21.76 2.214 21.76 2.13 21.76 2.044C21.75 2.044 21.739 2.044 21.728 2.044ZM18.71 2.139C18.721 2.16 18.731 2.181 18.742 2.202C18.763 2.192 18.784 2.181 18.806 2.171C18.774 2.16 18.743 2.15 18.71 2.139ZM22.84 2.202C22.872 2.266 22.872 2.266 22.872 2.266L22.84 2.202ZM18.869 2.266C18.88 2.287 18.89 2.307 18.901 2.329C18.922 2.319 18.943 2.308 18.965 2.297C18.933 2.287 18.902 2.276 18.869 2.266ZM19.981 2.266C19.992 2.287 20.002 2.307 20.013 2.329C20.034 2.319 20.055 2.308 20.076 2.297C20.045 2.287 20.014 2.276 19.981 2.266ZM21.697 2.297C21.728 2.361 21.728 2.361 21.728 2.361L21.697 2.297ZM22.904 2.297C22.935 2.361 22.935 2.361 22.935 2.361L22.904 2.297ZM21.665 2.361C21.697 2.424 21.697 2.424 21.697 2.424L21.665 2.361ZM22.935 2.361C22.967 2.424 22.967 2.424 22.967 2.424L22.935 2.361ZM22.967 2.424C22.999 2.488 22.999 2.488 22.999 2.488L22.967 2.424ZM21.569 2.456C21.559 2.477 21.548 2.498 21.538 2.519C21.569 2.509 21.601 2.498 21.633 2.488C21.612 2.477 21.591 2.467 21.569 2.456ZM22.999 2.488C22.999 2.54 22.999 2.592 22.999 2.646C23.009 2.646 23.02 2.646 23.031 2.646C23.031 2.594 23.031 2.542 23.031 2.488C23.02 2.488 23.01 2.488 22.999 2.488ZM20.553 2.551C20.68 2.583 20.68 2.583 20.68 2.583L20.553 2.551ZM20.68 2.583C20.68 2.593 20.68 2.604 20.68 2.614C20.732 2.614 20.785 2.614 20.839 2.614C20.839 2.604 20.839 2.593 20.839 2.583C20.786 2.583 20.734 2.583 20.68 2.583ZM21.284 2.583C21.411 2.614 21.411 2.614 21.411 2.614L21.284 2.583ZM20.871 2.614C20.871 2.625 20.871 2.635 20.871 2.646C20.996 2.646 21.122 2.646 21.252 2.646C21.252 2.636 21.252 2.625 21.252 2.614C21.126 2.614 21 2.614 20.871 2.614ZM22.999 2.71C23.031 2.805 23.031 2.805 23.031 2.805L22.999 2.71ZM22.967 2.805C22.999 2.9 22.999 2.9 22.999 2.9L22.967 2.805ZM22.935 2.9C22.967 2.995 22.967 2.995 22.967 2.995L22.935 2.9ZM22.904 2.995C22.935 3.09 22.935 3.09 22.935 3.09L22.904 2.995ZM20.712 3.122C20.839 3.153 20.839 3.153 20.839 3.153L20.712 3.122ZM20.839 3.153C20.839 3.164 20.839 3.174 20.839 3.185C20.891 3.185 20.944 3.185 20.998 3.185C20.998 3.175 20.998 3.164 20.998 3.153C20.945 3.153 20.893 3.153 20.839 3.153ZM20.998 3.185C20.998 3.196 20.998 3.206 20.998 3.217C21.05 3.217 21.102 3.217 21.156 3.217C21.156 3.206 21.156 3.196 21.156 3.185C21.104 3.185 21.052 3.185 20.998 3.185ZM21.156 3.217C21.156 3.227 21.156 3.238 21.156 3.249C21.219 3.249 21.282 3.249 21.347 3.249C21.347 3.238 21.347 3.228 21.347 3.217C21.284 3.217 21.221 3.217 21.156 3.217ZM22.427 3.217C22.427 3.227 22.427 3.238 22.427 3.249C22.479 3.249 22.532 3.249 22.586 3.249C22.586 3.238 22.586 3.228 22.586 3.217C22.534 3.217 22.481 3.217 22.427 3.217ZM21.379 3.249C21.379 3.259 21.379 3.27 21.379 3.28C21.463 3.28 21.546 3.28 21.633 3.28C21.633 3.27 21.633 3.259 21.633 3.249C21.549 3.249 21.465 3.249 21.379 3.249ZM22.173 3.249C22.173 3.259 22.173 3.27 22.173 3.28C22.257 3.28 22.341 3.28 22.427 3.28C22.427 3.27 22.427 3.259 22.427 3.249C22.343 3.249 22.259 3.249 22.173 3.249ZM21.728 3.28C21.728 3.291 21.728 3.301 21.728 3.312C21.854 3.312 21.98 3.312 22.109 3.312C22.109 3.302 22.109 3.291 22.109 3.28C21.984 3.28 21.858 3.28 21.728 3.28ZM9.15499 4.941C9.04599 5.071 9.01199 5.172 9.02199 5.341C9.15399 5.394 9.23399 5.416 9.37099 5.373C9.45799 5.313 9.45799 5.313 9.54199 5.238C9.57199 5.213 9.60299 5.187 9.63399 5.16C9.66299 5.136 9.69099 5.112 9.72099 5.088C9.86699 4.967 9.97599 4.909 10.165 4.897C9.85599 4.692 9.43799 4.702 9.15499 4.941ZM10.05 5.738C10.03 5.752 10.01 5.767 9.98899 5.782C9.97399 5.794 9.95899 5.805 9.94299 5.817C9.96099 5.842 9.96099 5.842 9.97899 5.868C10.177 6.156 10.328 6.41 10.33 6.764C10.33 6.802 10.331 6.84 10.331 6.879C10.324 6.99 10.301 7.077 10.261 7.18C10.156 7.139 10.051 7.097 9.94299 7.054C9.94599 7.029 9.94999 7.005 9.95299 6.98C9.99599 6.611 9.90599 6.399 9.68899 6.102C9.53099 6.151 9.42699 6.245 9.30599 6.352C9.28599 6.369 9.26699 6.386 9.24699 6.403C9.14699 6.49 9.04999 6.578 8.95799 6.673C8.96999 6.69 8.98299 6.707 8.99499 6.724C9.22899 7.059 9.31599 7.342 9.27599 7.751C9.25499 7.803 9.23399 7.856 9.21199 7.91C9.09699 7.878 8.98199 7.847 8.86299 7.815C8.87299 7.788 8.88399 7.761 8.89499 7.733C8.96599 7.489 8.91399 7.276 8.79899 7.054C8.71899 6.965 8.71899 6.965 8.63999 6.895C8.61099 6.92 8.58099 6.946 8.55099 6.972C8.26199 7.219 8.26199 7.219 7.97299 7.466C7.99099 7.492 7.99099 7.492 8.00899 7.518C8.32699 7.985 8.42999 8.297 8.32299 8.861C8.20799 8.809 8.09199 8.756 7.97299 8.702C7.98399 8.661 7.99399 8.619 8.00499 8.576C8.03999 8.243 7.92699 8.021 7.72499 7.765C7.70599 7.742 7.70599 7.742 7.68699 7.719C7.55099 7.795 7.43799 7.887 7.31999 7.989C7.10199 8.176 7.10199 8.176 6.98899 8.258C7.03399 8.354 7.08799 8.44 7.14499 8.528C7.35599 8.878 7.35499 9.202 7.27499 9.59C7.25199 9.581 7.22999 9.572 7.20699 9.562C7.17799 9.551 7.14899 9.539 7.11999 9.527C7.09099 9.515 7.06199 9.503 7.03299 9.491C6.95999 9.46 6.95999 9.46 6.89299 9.463C6.90399 9.443 6.91399 9.423 6.92499 9.402C6.99899 9.176 6.95999 8.988 6.86699 8.773C6.82199 8.687 6.76899 8.615 6.70299 8.544C6.58899 8.594 6.50399 8.663 6.40899 8.742C6.26599 8.86 6.12199 8.974 5.97199 9.083C5.98399 9.098 5.99599 9.114 6.00799 9.129C6.06099 9.198 6.11199 9.267 6.16299 9.337C6.17699 9.357 6.19199 9.377 6.20699 9.398C6.39099 9.668 6.45999 9.984 6.40199 10.306C6.38699 10.374 6.37099 10.442 6.35299 10.51C6.17999 10.431 6.17999 10.431 6.00399 10.351C6.01399 10.32 6.02499 10.288 6.03599 10.256C6.07199 9.961 6.00799 9.742 5.84499 9.495C5.80399 9.452 5.76199 9.409 5.71799 9.368C5.55799 9.417 5.45499 9.513 5.33299 9.622C5.29399 9.656 5.25499 9.691 5.21499 9.725C5.19799 9.74 5.18099 9.755 5.16399 9.771C5.11399 9.812 5.11399 9.812 5.01899 9.876C5.03899 9.982 5.07899 10.051 5.14199 10.139C5.33699 10.423 5.41799 10.718 5.35399 11.062C5.33899 11.122 5.32199 11.18 5.30499 11.239C5.18999 11.187 5.07399 11.134 4.95599 11.08C4.96599 11.049 4.97699 11.018 4.98699 10.985C5.02099 10.654 4.92399 10.426 4.73299 10.161C4.61999 10.211 4.53399 10.28 4.43899 10.359C4.29699 10.477 4.15199 10.591 4.00299 10.7C4.04799 10.799 4.10299 10.876 4.17299 10.96C4.35899 11.194 4.45199 11.428 4.45299 11.726C4.45399 11.761 4.45399 11.796 4.45499 11.832C4.44699 11.94 4.42199 12.026 4.38399 12.127C4.26799 12.095 4.15299 12.064 4.03399 12.032C4.04699 11.981 4.05899 11.931 4.07199 11.879C4.11299 11.65 4.07699 11.46 3.95799 11.259C3.87799 11.148 3.79799 11.065 3.68499 10.985C3.44899 11.172 3.21699 11.363 2.98599 11.556C3.00999 11.579 3.03299 11.602 3.05699 11.625C3.39499 11.97 3.54199 12.302 3.53699 12.781C3.52599 12.888 3.52599 12.888 3.46299 13.046C3.35799 13.005 3.25299 12.963 3.14499 12.92C3.15499 12.867 3.16599 12.815 3.17699 12.761C3.20199 12.459 3.09199 12.224 2.90499 11.99C2.85099 11.927 2.79399 11.867 2.73199 11.81C2.62799 11.857 2.54599 11.916 2.45799 11.988C2.42999 12.01 2.40299 12.033 2.37499 12.056C2.34599 12.079 2.31699 12.103 2.28699 12.127C2.22799 12.175 2.16799 12.222 2.10899 12.269C2.06899 12.301 2.06899 12.301 2.02799 12.334C2.00899 12.349 1.98899 12.365 1.96999 12.38C1.99099 12.402 2.01299 12.424 2.03499 12.446C2.04999 12.46 2.06399 12.475 2.07899 12.49C2.11299 12.523 2.14699 12.556 2.18199 12.588C2.44099 12.83 2.58399 13.108 2.63699 13.459C2.63099 13.493 2.62499 13.527 2.61899 13.563C2.62399 13.678 2.62399 13.678 2.68799 13.733C2.76599 13.788 2.84499 13.838 2.92699 13.888C2.98899 13.927 3.05099 13.966 3.11199 14.005C3.14399 14.024 3.17599 14.044 3.20899 14.065C3.35599 14.158 3.49999 14.255 3.64399 14.353C3.70099 14.392 3.75799 14.43 3.81499 14.469C3.90099 14.526 3.98699 14.584 4.07199 14.642C4.38199 14.851 4.69199 15.059 5.00199 15.265C5.34699 15.494 5.68899 15.725 6.03199 15.956C6.48499 16.262 6.48499 16.262 6.94099 16.566C7.27599 16.789 7.60999 17.014 7.94499 17.24C8.26299 17.454 8.58099 17.668 8.90099 17.881C9.23099 18.1 9.55899 18.322 9.88799 18.543C10.181 18.741 10.474 18.938 10.768 19.134C11.096 19.352 11.423 19.572 11.75 19.792C12.237 20.121 12.237 20.121 12.726 20.447C12.774 20.479 12.821 20.511 12.869 20.543C12.924 20.58 12.979 20.616 13.034 20.652C13.052 20.664 13.069 20.676 13.088 20.688C13.337 20.852 13.591 20.874 13.882 20.847C14.258 20.759 14.539 20.386 14.8 20.123C14.849 20.073 14.899 20.023 14.95 19.973C15.056 19.866 15.162 19.76 15.268 19.653C15.391 19.53 15.514 19.406 15.638 19.282C15.687 19.233 15.735 19.184 15.784 19.135C15.908 19.01 16.033 18.886 16.167 18.772C16.331 18.632 16.481 18.478 16.633 18.325C16.688 18.269 16.744 18.213 16.8 18.158C16.918 18.039 17.036 17.921 17.154 17.803C17.291 17.665 17.428 17.528 17.565 17.391C17.619 17.336 17.674 17.282 17.728 17.227C17.881 17.074 18.034 16.924 18.199 16.784C18.337 16.661 18.466 16.528 18.597 16.397C18.651 16.342 18.706 16.287 18.76 16.233C18.876 16.117 18.992 16 19.108 15.884C19.242 15.75 19.376 15.615 19.51 15.48C19.564 15.427 19.617 15.373 19.67 15.32C19.822 15.168 19.974 15.021 20.137 14.882C20.275 14.758 20.404 14.625 20.534 14.494C20.588 14.44 20.643 14.385 20.697 14.331C20.812 14.216 20.927 14.101 21.041 13.986C21.175 13.851 21.309 13.717 21.443 13.583C21.496 13.53 21.549 13.476 21.603 13.422C21.635 13.39 21.668 13.357 21.701 13.325C21.729 13.296 21.757 13.267 21.787 13.238C21.855 13.173 21.855 13.173 21.919 13.142C21.919 13.121 21.919 13.1 21.919 13.078C21.936 13.071 21.954 13.063 21.972 13.056C22.119 12.974 22.234 12.845 22.354 12.727C22.387 12.696 22.42 12.664 22.453 12.633C22.651 12.46 22.651 12.46 22.765 12.234C22.766 12.148 22.766 12.148 22.745 12.032C22.766 11.979 22.787 11.926 22.808 11.873C22.837 11.665 22.801 11.477 22.681 11.302C22.537 11.169 22.391 11.088 22.213 11.008C22.186 10.995 22.159 10.983 22.132 10.97C22.046 10.931 21.959 10.892 21.873 10.853C21.814 10.825 21.755 10.799 21.696 10.771C21.039 10.458 21.039 10.458 20.362 10.193C20.349 10.221 20.349 10.221 20.335 10.249C19.8 11.341 19.8 11.341 19.515 11.535C19.3 11.689 19.124 11.9 18.953 12.099C18.884 12.178 18.809 12.251 18.734 12.324C18.677 12.383 18.623 12.443 18.569 12.505C18.473 12.617 18.37 12.721 18.265 12.824C18.184 12.906 18.109 12.993 18.034 13.08C17.964 13.159 17.889 13.233 17.813 13.307C17.755 13.366 17.701 13.427 17.646 13.49C17.575 13.573 17.502 13.652 17.424 13.728C17.347 13.804 17.274 13.882 17.204 13.964C17.127 14.053 17.047 14.137 16.963 14.22C16.88 14.301 16.801 14.385 16.725 14.473C16.632 14.582 16.532 14.683 16.429 14.782C16.369 14.844 16.312 14.907 16.256 14.972C16.139 15.106 16.019 15.235 15.897 15.363C15.852 15.411 15.807 15.458 15.762 15.506C15.74 15.529 15.717 15.553 15.694 15.577C15.597 15.68 15.501 15.783 15.405 15.886C15.252 16.05 15.099 16.213 14.946 16.376C14.718 16.618 14.491 16.862 14.263 17.105C14.056 17.327 13.848 17.549 13.64 17.77C13.6 17.813 13.561 17.855 13.521 17.897C13.419 18.006 13.317 18.114 13.214 18.222C13.194 18.244 13.173 18.266 13.152 18.288C13.113 18.329 13.073 18.371 13.034 18.412C13.016 18.43 12.999 18.449 12.981 18.468C12.965 18.484 12.95 18.5 12.934 18.517C12.89 18.567 12.89 18.567 12.865 18.659C12.844 18.659 12.823 18.659 12.802 18.659C12.806 18.641 12.81 18.624 12.814 18.606C12.853 18.437 12.884 18.268 12.909 18.096C12.913 18.07 12.917 18.044 12.921 18.016C12.934 17.929 12.948 17.841 12.96 17.754C12.97 17.69 12.979 17.627 12.989 17.564C13.014 17.393 13.04 17.222 13.066 17.05C13.092 16.87 13.119 16.689 13.146 16.509C13.192 16.205 13.237 15.901 13.282 15.597C13.334 15.248 13.386 14.9 13.438 14.551C13.488 14.214 13.539 13.876 13.589 13.538C13.611 13.396 13.632 13.254 13.653 13.111C13.852 11.8 13.852 11.8 14.028 10.485C14.073 10.135 14.232 9.804 14.371 9.482C14.428 9.351 14.484 9.219 14.54 9.087C14.551 9.06 14.563 9.033 14.574 9.006C14.68 8.756 14.785 8.506 14.887 8.256C14.905 8.211 14.923 8.167 14.942 8.123C14.967 8.062 14.992 8.001 15.017 7.94C15.031 7.906 15.045 7.871 15.059 7.836C15.094 7.751 15.094 7.751 15.089 7.656C14.658 7.457 14.222 7.274 13.78 7.1C13.605 7.031 13.43 6.961 13.255 6.892C13.221 6.878 13.187 6.865 13.152 6.851C12.882 6.744 12.613 6.634 12.345 6.522C12.088 6.416 11.831 6.309 11.573 6.205C11.547 6.195 11.52 6.184 11.493 6.173C11.373 6.121 11.373 6.121 11.245 6.102C11.224 6.155 11.203 6.207 11.182 6.261C11.066 6.229 10.951 6.198 10.832 6.166C10.843 6.082 10.853 5.998 10.864 5.912C10.76 5.87 10.655 5.827 10.55 5.785C10.521 5.773 10.491 5.761 10.46 5.749C10.432 5.737 10.403 5.726 10.374 5.714C10.348 5.703 10.321 5.693 10.294 5.682C10.18 5.641 10.144 5.669 10.05 5.738ZM8.17999 5.912C8.12299 6.008 8.12299 6.008 8.13199 6.134C8.23599 6.185 8.23599 6.185 8.34999 6.191C8.44299 6.156 8.50799 6.101 8.58499 6.037C8.62699 6.002 8.62699 6.002 8.67099 5.966C8.69199 5.948 8.71399 5.931 8.73599 5.912C8.72699 5.791 8.72699 5.791 8.67199 5.69C8.47199 5.66 8.30399 5.764 8.17999 5.912ZM7.22499 6.558C7.10499 6.695 7.05199 6.809 7.05199 6.99C7.14799 7.026 7.23599 7.05 7.33799 7.054C7.43499 7.008 7.50299 6.942 7.57799 6.867C7.59799 6.849 7.61799 6.83 7.63899 6.811C7.68699 6.766 7.73499 6.72 7.78299 6.673C7.76199 6.589 7.74099 6.506 7.71899 6.419C7.53799 6.406 7.36499 6.436 7.22499 6.558ZM6.24499 7.547C6.18599 7.631 6.16299 7.679 6.16299 7.783C6.26999 7.838 6.26999 7.838 6.38499 7.846C6.46899 7.79 6.53599 7.727 6.60699 7.656C6.67099 7.593 6.67099 7.593 6.76599 7.529C6.75599 7.466 6.74499 7.404 6.73399 7.339C6.53299 7.314 6.37799 7.399 6.24499 7.547ZM5.22099 8.245C5.12199 8.372 5.09199 8.48 5.08299 8.639C5.17699 8.676 5.23799 8.7 5.33699 8.702C5.43699 8.651 5.51099 8.578 5.59099 8.5C5.61199 8.48 5.63399 8.46 5.65599 8.44C5.70899 8.391 5.76199 8.341 5.81299 8.29C5.79199 8.217 5.77099 8.144 5.74999 8.068C5.55199 8.048 5.36499 8.107 5.22099 8.245ZM4.27499 9.192C4.22399 9.274 4.20399 9.336 4.19299 9.432C4.28099 9.462 4.32499 9.476 4.41599 9.463C4.49799 9.406 4.56599 9.343 4.63699 9.272C4.70099 9.21 4.70099 9.21 4.79699 9.146C4.78599 9.094 4.77599 9.042 4.76499 8.988C4.56999 8.963 4.40799 9.058 4.27499 9.192ZM3.30999 9.866C3.18299 10.011 3.14099 10.091 3.14499 10.288C3.20799 10.309 3.27099 10.33 3.33499 10.351C3.35399 10.335 3.37199 10.319 3.38999 10.302C3.41499 10.281 3.43899 10.259 3.46499 10.236C3.48999 10.213 3.51599 10.19 3.54299 10.166C3.59099 10.124 3.63999 10.083 3.69099 10.045C3.74799 10.002 3.79899 9.963 3.84399 9.907C3.84799 9.802 3.84799 9.802 3.81199 9.717C3.62299 9.703 3.45099 9.734 3.30999 9.866ZM2.36399 10.805C2.24399 10.932 2.23199 11.041 2.22399 11.207C2.31499 11.165 2.38999 11.117 2.46699 11.054C2.48799 11.038 2.50999 11.021 2.53099 11.003C2.55299 10.985 2.57499 10.968 2.59699 10.95C2.61899 10.932 2.64099 10.914 2.66399 10.896C2.71899 10.852 2.77299 10.807 2.82699 10.763C2.81699 10.722 2.80599 10.68 2.79499 10.637C2.62199 10.637 2.49699 10.695 2.36399 10.805ZM15.057 10.795C15.057 10.806 15.057 10.816 15.057 10.827C15.225 10.827 15.393 10.827 15.566 10.827C15.566 10.816 15.566 10.806 15.566 10.795C15.398 10.795 15.23 10.795 15.057 10.795ZM14.708 10.827C14.708 10.837 14.708 10.848 14.708 10.858C14.813 10.858 14.917 10.858 15.026 10.858C15.026 10.848 15.026 10.838 15.026 10.827C14.921 10.827 14.816 10.827 14.708 10.827ZM15.629 10.827C15.629 10.837 15.629 10.848 15.629 10.858C15.692 10.858 15.755 10.858 15.82 10.858C15.82 10.848 15.82 10.838 15.82 10.827C15.757 10.827 15.694 10.827 15.629 10.827ZM14.39 10.858C14.39 10.869 14.39 10.879 14.39 10.89C14.495 10.89 14.6 10.89 14.708 10.89C14.708 10.88 14.708 10.869 14.708 10.858C14.603 10.858 14.498 10.858 14.39 10.858ZM15.82 10.858C15.947 10.89 15.947 10.89 15.947 10.89L15.82 10.858ZM14.358 10.922C14.358 10.985 14.358 11.047 14.358 11.112C14.369 11.112 14.379 11.112 14.39 11.112C14.39 11.049 14.39 10.987 14.39 10.922C14.38 10.922 14.369 10.922 14.358 10.922ZM14.327 11.112C14.327 11.185 14.327 11.259 14.327 11.334C14.337 11.334 14.348 11.334 14.358 11.334C14.358 11.261 14.358 11.188 14.358 11.112C14.348 11.112 14.337 11.112 14.327 11.112ZM16.423 11.176C16.434 11.207 16.444 11.238 16.455 11.271C16.455 11.239 16.455 11.208 16.455 11.176C16.444 11.176 16.434 11.176 16.423 11.176ZM16.519 11.302C16.55 11.366 16.55 11.366 16.55 11.366L16.519 11.302ZM14.295 11.334C14.295 11.397 14.295 11.46 14.295 11.524C14.305 11.524 14.316 11.524 14.327 11.524C14.327 11.462 14.327 11.399 14.327 11.334C14.316 11.334 14.306 11.334 14.295 11.334ZM16.55 11.366C16.582 11.429 16.582 11.429 16.582 11.429L16.55 11.366ZM16.582 11.429C16.614 11.493 16.614 11.493 16.614 11.493L16.582 11.429ZM16.614 11.493C16.646 11.588 16.646 11.588 16.646 11.588L16.614 11.493ZM1.46899 11.704C1.39499 11.784 1.39499 11.784 1.33399 11.873C1.34499 11.905 1.35499 11.936 1.36599 11.968C1.51799 11.835 1.66999 11.701 1.81099 11.556C1.66899 11.556 1.57299 11.606 1.46899 11.704ZM14.263 11.556C14.263 11.629 14.263 11.703 14.263 11.778C14.274 11.778 14.284 11.778 14.295 11.778C14.295 11.705 14.295 11.632 14.295 11.556C14.284 11.556 14.274 11.556 14.263 11.556ZM16.646 11.588C16.677 11.715 16.677 11.715 16.677 11.715L16.646 11.588ZM16.677 11.715C16.709 11.842 16.709 11.842 16.709 11.842L16.677 11.715ZM14.231 11.778C14.231 11.841 14.231 11.904 14.231 11.968C14.242 11.968 14.252 11.968 14.263 11.968C14.263 11.906 14.263 11.843 14.263 11.778C14.253 11.778 14.242 11.778 14.231 11.778ZM16.709 11.842C16.741 11.937 16.741 11.937 16.741 11.937L16.709 11.842ZM16.677 11.937C16.709 12 16.709 12 16.709 12L16.677 11.937ZM14.2 11.968C14.2 12.031 14.2 12.094 14.2 12.158C14.21 12.158 14.221 12.158 14.231 12.158C14.231 12.096 14.231 12.033 14.231 11.968C14.221 11.968 14.21 11.968 14.2 11.968ZM16.646 12C16.677 12.063 16.677 12.063 16.677 12.063L16.646 12ZM16.614 12.095C16.646 12.158 16.646 12.158 16.646 12.158L16.614 12.095ZM16.582 12.158C16.614 12.222 16.614 12.222 16.614 12.222L16.582 12.158ZM14.168 12.222C14.168 12.285 14.168 12.347 14.168 12.412C14.178 12.412 14.189 12.412 14.2 12.412C14.2 12.349 14.2 12.287 14.2 12.222C14.189 12.222 14.179 12.222 14.168 12.222ZM16.55 12.222C16.582 12.285 16.582 12.285 16.582 12.285L16.55 12.222ZM16.519 12.285C16.55 12.349 16.55 12.349 16.55 12.349L16.519 12.285ZM14.136 12.412C14.136 12.475 14.136 12.538 14.136 12.602C14.147 12.602 14.157 12.602 14.168 12.602C14.168 12.54 14.168 12.477 14.168 12.412C14.157 12.412 14.147 12.412 14.136 12.412ZM0.509992 12.628C0.402992 12.793 0.363992 12.971 0.394992 13.167C0.433992 13.306 0.479992 13.409 0.571992 13.522C0.588992 13.494 0.605992 13.466 0.622992 13.437C0.696992 13.326 0.784992 13.254 0.888992 13.173C0.871992 13.156 0.853992 13.138 0.835992 13.12C0.811992 13.095 0.786992 13.071 0.761992 13.046C0.733992 13.024 0.704992 13.002 0.674992 12.979C0.571992 12.847 0.588992 12.732 0.603992 12.571C0.561992 12.567 0.561992 12.567 0.509992 12.628ZM1.65199 12.634C1.63099 12.676 1.60999 12.718 1.58799 12.761C1.63899 12.791 1.63899 12.791 1.69199 12.822C1.79099 12.892 1.83099 12.949 1.87399 13.062C1.93599 13.222 2.01299 13.279 2.15999 13.363C2.18099 13.363 2.20199 13.363 2.22399 13.363C2.19799 13.089 1.97999 12.868 1.77899 12.698C1.71099 12.659 1.71099 12.659 1.65199 12.634ZM14.104 12.634C14.104 12.686 14.104 12.739 14.104 12.793C14.115 12.793 14.125 12.793 14.136 12.793C14.136 12.74 14.136 12.688 14.136 12.634C14.126 12.634 14.115 12.634 14.104 12.634ZM14.073 12.856C14.073 12.919 14.073 12.982 14.073 13.046C14.083 13.046 14.094 13.046 14.104 13.046C14.104 12.984 14.104 12.921 14.104 12.856C14.094 12.856 14.083 12.856 14.073 12.856ZM14.041 13.046C14.041 13.109 14.041 13.172 14.041 13.237C14.051 13.237 14.062 13.237 14.073 13.237C14.073 13.174 14.073 13.111 14.073 13.046C14.062 13.046 14.052 13.046 14.041 13.046ZM14.009 13.268C14.009 13.331 14.009 13.394 14.009 13.459C14.019 13.459 14.03 13.459 14.041 13.459C14.041 13.396 14.041 13.333 14.041 13.268C14.03 13.268 14.02 13.268 14.009 13.268ZM22.604 12.963C22.554 13.013 22.505 13.063 22.456 13.114C22.371 13.201 22.283 13.283 22.19 13.363C22.026 13.505 21.874 13.658 21.721 13.812C21.667 13.866 21.614 13.92 21.56 13.973C21.447 14.087 21.333 14.201 21.22 14.315C21.088 14.447 20.957 14.579 20.825 14.711C20.773 14.763 20.72 14.816 20.668 14.868C20.405 15.132 20.405 15.132 20.268 15.249C20.103 15.39 19.951 15.546 19.797 15.701C19.741 15.758 19.684 15.814 19.627 15.871C19.507 15.992 19.387 16.112 19.266 16.233C19.127 16.373 18.987 16.513 18.848 16.653C18.792 16.708 18.737 16.764 18.681 16.82C18.527 16.975 18.372 17.126 18.205 17.268C18.067 17.391 17.938 17.524 17.808 17.655C17.754 17.709 17.699 17.764 17.645 17.818C17.53 17.933 17.416 18.048 17.301 18.163C17.167 18.297 17.033 18.432 16.899 18.566C16.846 18.619 16.793 18.673 16.739 18.726C16.707 18.759 16.674 18.792 16.642 18.824C16.613 18.853 16.585 18.881 16.555 18.911C16.487 18.976 16.487 18.976 16.423 19.007C16.423 19.028 16.423 19.049 16.423 19.071C16.406 19.078 16.388 19.085 16.37 19.093C16.274 19.147 16.207 19.216 16.129 19.295C16.113 19.312 16.097 19.328 16.08 19.345C16.045 19.38 16.01 19.416 15.975 19.451C15.919 19.508 15.863 19.564 15.807 19.621C15.648 19.781 15.489 19.941 15.331 20.102C15.233 20.2 15.136 20.298 15.039 20.396C15.002 20.433 14.965 20.471 14.928 20.508C14.559 20.883 14.219 21.183 13.67 21.203C13.144 21.196 12.727 20.877 12.311 20.593C12.26 20.558 12.209 20.523 12.158 20.489C12.049 20.415 11.94 20.34 11.831 20.266C11.562 20.083 11.291 19.901 11.021 19.719C10.934 19.661 10.847 19.603 10.76 19.544C10.526 19.386 10.292 19.229 10.057 19.073C9.71799 18.848 9.38099 18.62 9.04299 18.392C8.74799 18.193 8.45199 17.994 8.15499 17.796C7.83999 17.588 7.52799 17.376 7.21499 17.165C6.87399 16.935 6.53299 16.706 6.18999 16.479C5.84999 16.252 5.51099 16.023 5.17199 15.795C4.86199 15.586 4.55299 15.378 4.24199 15.172C3.89599 14.942 3.55099 14.71 3.20599 14.477C3.08899 14.398 2.97099 14.319 2.85399 14.24C2.82599 14.221 2.79799 14.202 2.76999 14.183C2.62099 14.083 2.47199 13.983 2.32299 13.884C2.22699 13.821 2.13099 13.756 2.03799 13.687C2.00599 13.663 1.97299 13.64 1.93999 13.615C1.90699 13.591 1.87399 13.566 1.83999 13.541C1.75099 13.481 1.75099 13.481 1.65599 13.498C1.63299 13.506 1.61099 13.514 1.58799 13.522C1.58799 13.543 1.58799 13.564 1.58799 13.585C1.62199 13.607 1.65599 13.629 1.69199 13.651C1.79099 13.718 1.82699 13.768 1.86699 13.881C1.93599 14.047 2.03099 14.118 2.17999 14.212C2.21699 14.236 2.21699 14.236 2.25399 14.261C2.33399 14.314 2.41499 14.366 2.49599 14.418C2.55199 14.455 2.60899 14.492 2.66599 14.53C2.78499 14.608 2.90399 14.686 3.02399 14.764C3.29899 14.944 3.56999 15.128 3.84199 15.312C3.97999 15.405 4.11699 15.498 4.25499 15.591C4.28099 15.608 4.30799 15.626 4.33499 15.644C4.52399 15.772 4.71499 15.898 4.90499 16.025C5.24999 16.254 5.59299 16.485 5.93599 16.717C6.38999 17.023 6.38999 17.023 6.84499 17.327C7.18099 17.55 7.51499 17.775 7.84899 18.001C8.16799 18.215 8.48599 18.429 8.80599 18.642C9.13599 18.861 9.46399 19.083 9.79199 19.304C10.085 19.502 10.379 19.699 10.673 19.895C10.999 20.112 11.324 20.33 11.648 20.549C12.032 20.808 12.416 21.066 12.802 21.322C12.827 21.339 12.852 21.355 12.877 21.372C12.932 21.409 12.987 21.445 13.042 21.481C13.094 21.515 13.094 21.515 13.148 21.55C13.399 21.696 13.68 21.717 13.963 21.653C14.288 21.526 14.542 21.207 14.782 20.965C14.829 20.918 14.875 20.871 14.922 20.824C15.022 20.725 15.121 20.625 15.22 20.525C15.335 20.41 15.451 20.294 15.566 20.178C15.612 20.132 15.658 20.086 15.703 20.04C15.823 19.921 15.942 19.802 16.07 19.693C16.235 19.552 16.385 19.398 16.538 19.244C16.593 19.189 16.649 19.133 16.705 19.077C16.823 18.959 16.941 18.84 17.059 18.722C17.195 18.585 17.332 18.447 17.469 18.31C17.524 18.256 17.578 18.201 17.632 18.146C17.785 17.993 17.939 17.844 18.103 17.704C18.244 17.579 18.375 17.444 18.507 17.31C18.562 17.255 18.618 17.199 18.673 17.144C18.79 17.027 18.907 16.909 19.024 16.792C19.16 16.655 19.297 16.518 19.433 16.382C19.488 16.327 19.542 16.272 19.597 16.218C19.63 16.184 19.663 16.151 19.696 16.118C19.725 16.089 19.754 16.06 19.784 16.03C19.854 15.964 19.854 15.964 19.918 15.932C19.918 15.911 19.918 15.89 19.918 15.868C19.935 15.861 19.952 15.854 19.97 15.847C20.069 15.791 20.142 15.716 20.221 15.635C20.239 15.618 20.256 15.601 20.274 15.583C20.331 15.526 20.387 15.469 20.444 15.411C20.484 15.371 20.524 15.331 20.564 15.292C20.669 15.186 20.773 15.081 20.878 14.976C21.045 14.808 21.212 14.64 21.379 14.472C21.438 14.414 21.496 14.355 21.554 14.297C21.733 14.116 21.915 13.941 22.109 13.776C22.223 13.673 22.334 13.567 22.445 13.461C22.474 13.433 22.504 13.406 22.534 13.378C22.684 13.244 22.684 13.244 22.756 13.065C22.749 12.987 22.749 12.987 22.713 12.888C22.667 12.884 22.667 12.884 22.604 12.963ZM13.977 13.49C13.977 13.553 13.977 13.616 13.977 13.681C13.988 13.681 13.998 13.681 14.009 13.681C14.009 13.618 14.009 13.555 14.009 13.49C13.998 13.49 13.988 13.49 13.977 13.49ZM13.946 13.712C13.946 13.765 13.946 13.817 13.946 13.871C13.956 13.871 13.966 13.871 13.977 13.871C13.977 13.818 13.977 13.766 13.977 13.712C13.967 13.712 13.956 13.712 13.946 13.712ZM22.681 13.712C22.671 13.733 22.66 13.754 22.649 13.776C22.678 13.843 22.678 13.843 22.713 13.903C22.713 13.84 22.713 13.777 22.713 13.712C22.702 13.712 22.692 13.712 22.681 13.712ZM13.914 13.903C13.914 13.965 13.914 14.028 13.914 14.093C13.924 14.093 13.935 14.093 13.946 14.093C13.946 14.03 13.946 13.967 13.946 13.903C13.935 13.903 13.925 13.903 13.914 13.903ZM22.713 13.903C22.745 13.966 22.745 13.966 22.745 13.966L22.713 13.903ZM13.882 14.124C13.882 14.187 13.882 14.25 13.882 14.315C13.892 14.315 13.903 14.315 13.914 14.315C13.914 14.252 13.914 14.189 13.914 14.124C13.903 14.124 13.893 14.124 13.882 14.124ZM22.427 14.188C22.27 14.345 22.113 14.502 21.951 14.663C22.044 14.673 22.044 14.673 22.098 14.623C22.116 14.604 22.134 14.585 22.153 14.566C22.182 14.536 22.182 14.536 22.212 14.506C22.233 14.484 22.253 14.463 22.274 14.441C22.295 14.42 22.316 14.399 22.337 14.377C22.389 14.325 22.44 14.272 22.491 14.22C22.47 14.209 22.449 14.199 22.427 14.188ZM1.61999 14.346C1.60999 14.367 1.59899 14.388 1.58799 14.41C1.60899 14.41 1.62999 14.41 1.65199 14.41C1.64099 14.389 1.63099 14.368 1.61999 14.346ZM13.85 14.346C13.85 14.409 13.85 14.472 13.85 14.537C13.861 14.537 13.871 14.537 13.882 14.537C13.882 14.474 13.882 14.411 13.882 14.346C13.872 14.346 13.861 14.346 13.85 14.346ZM1.90599 14.473C1.91599 14.494 1.92699 14.515 1.93799 14.537C1.95899 14.526 1.97999 14.516 2.00099 14.505C1.96999 14.495 1.93799 14.484 1.90599 14.473ZM2.00099 14.537C2.01199 14.558 2.02199 14.578 2.03299 14.6C2.05399 14.59 2.07499 14.579 2.09699 14.568C2.06499 14.558 2.03399 14.547 2.00099 14.537ZM13.818 14.537C13.818 14.61 13.818 14.683 13.818 14.759C13.829 14.759 13.839 14.759 13.85 14.759C13.85 14.685 13.85 14.612 13.85 14.537C13.84 14.537 13.829 14.537 13.818 14.537ZM1.87399 14.6C1.90599 14.695 1.90599 14.695 1.90599 14.695L1.87399 14.6ZM2.09699 14.6C2.10699 14.621 2.11799 14.642 2.12799 14.663C2.14899 14.653 2.16999 14.643 2.19199 14.632C2.15999 14.621 2.12899 14.611 2.09699 14.6ZM21.728 14.632C21.54 14.82 21.351 15.009 21.156 15.203C21.253 15.213 21.253 15.213 21.312 15.153C21.334 15.13 21.356 15.108 21.379 15.085C21.403 15.06 21.427 15.036 21.452 15.011C21.49 14.972 21.49 14.972 21.528 14.933C21.553 14.907 21.578 14.882 21.604 14.855C21.667 14.791 21.729 14.728 21.792 14.663C21.771 14.653 21.75 14.643 21.728 14.632ZM2.19199 14.663C2.20199 14.684 2.21299 14.705 2.22399 14.727C2.24499 14.716 2.26599 14.706 2.28699 14.695C2.25599 14.685 2.22399 14.674 2.19199 14.663ZM1.90599 14.695C1.93799 14.822 1.93799 14.822 1.93799 14.822L1.90599 14.695ZM2.28699 14.727C2.29799 14.748 2.30799 14.769 2.31899 14.79C2.33999 14.78 2.36099 14.769 2.38199 14.759C2.35099 14.748 2.31999 14.738 2.28699 14.727ZM21.855 14.759C21.845 14.78 21.834 14.8 21.823 14.822C21.844 14.822 21.865 14.822 21.887 14.822C21.877 14.801 21.866 14.78 21.855 14.759ZM2.38199 14.79C2.39299 14.811 2.40299 14.832 2.41399 14.854C2.43499 14.843 2.45599 14.833 2.47799 14.822C2.44599 14.812 2.41499 14.801 2.38199 14.79ZM13.818 14.79C13.85 14.837 13.85 14.837 13.882 14.885C13.903 14.875 13.924 14.865 13.946 14.854C13.903 14.833 13.862 14.812 13.818 14.79ZM2.47799 14.854C2.48799 14.875 2.49899 14.896 2.50999 14.917C2.53099 14.907 2.55099 14.896 2.57299 14.885C2.54199 14.875 2.50999 14.865 2.47799 14.854ZM13.818 15.076C13.811 15.109 13.804 15.142 13.796 15.176C13.729 15.477 13.662 15.779 13.595 16.08C13.59 16.102 13.585 16.125 13.58 16.148C13.569 16.197 13.558 16.246 13.546 16.295C13.541 16.32 13.535 16.345 13.529 16.371C13.524 16.394 13.518 16.417 13.513 16.44C13.498 16.515 13.496 16.585 13.501 16.661C13.554 16.581 13.582 16.526 13.612 16.437C13.621 16.412 13.63 16.386 13.639 16.359C13.649 16.332 13.658 16.304 13.668 16.276C13.677 16.247 13.687 16.219 13.697 16.189C13.718 16.129 13.739 16.069 13.759 16.009C13.79 15.916 13.822 15.824 13.854 15.732C13.874 15.673 13.894 15.615 13.914 15.556C13.924 15.529 13.933 15.501 13.943 15.472C13.951 15.447 13.96 15.421 13.969 15.395C13.977 15.372 13.985 15.349 13.993 15.326C14.013 15.261 14.013 15.261 14.009 15.171C13.946 15.139 13.883 15.108 13.818 15.076ZM14.613 15.234C14.74 15.266 14.74 15.266 14.74 15.266L14.613 15.234ZM14.74 15.266C14.74 15.276 14.74 15.287 14.74 15.298C14.792 15.298 14.844 15.298 14.899 15.298C14.899 15.287 14.899 15.277 14.899 15.266C14.846 15.266 14.794 15.266 14.74 15.266ZM3.11299 15.615C3.12399 15.636 3.13399 15.657 3.14499 15.678C3.16599 15.668 3.18699 15.657 3.20799 15.646C3.17699 15.636 3.14599 15.625 3.11299 15.615ZM3.30399 15.742C3.31399 15.762 3.32499 15.783 3.33499 15.805C3.35599 15.795 3.37699 15.784 3.39899 15.773C3.36799 15.763 3.33599 15.752 3.30399 15.742ZM3.84399 15.773C3.85399 15.794 3.86499 15.815 3.87599 15.837C3.89599 15.826 3.91699 15.816 3.93899 15.805C3.90799 15.795 3.87599 15.784 3.84399 15.773ZM3.39899 15.805C3.40899 15.826 3.41999 15.847 3.43099 15.868C3.45199 15.858 3.47299 15.847 3.49399 15.837C3.46299 15.826 3.43099 15.816 3.39899 15.805ZM3.93899 15.837C3.94999 15.858 3.95999 15.878 3.97099 15.9C3.99199 15.89 4.01299 15.879 4.03399 15.868C4.00299 15.858 3.97099 15.847 3.93899 15.837ZM3.49399 15.868C3.50499 15.889 3.51499 15.91 3.52599 15.932C3.54699 15.921 3.56799 15.911 3.58999 15.9C3.55799 15.89 3.52699 15.879 3.49399 15.868ZM3.58999 15.932C3.59999 15.953 3.61099 15.974 3.62099 15.995C3.64199 15.985 3.66299 15.974 3.68499 15.964C3.65299 15.953 3.62199 15.943 3.58999 15.932ZM4.12999 15.964C4.13999 15.984 4.15099 16.005 4.16099 16.027C4.18199 16.017 4.20299 16.006 4.22499 15.995C4.19399 15.985 4.16199 15.974 4.12999 15.964ZM3.68499 15.995C3.69499 16.016 3.70599 16.037 3.71699 16.059C3.73799 16.048 3.75899 16.038 3.77999 16.027C3.74899 16.017 3.71699 16.006 3.68499 15.995ZM4.22499 16.027C4.23499 16.048 4.24599 16.069 4.25699 16.09C4.27799 16.08 4.29899 16.069 4.31999 16.059C4.28899 16.048 4.25699 16.038 4.22499 16.027ZM4.31999 16.09C4.33099 16.111 4.34099 16.132 4.35199 16.154C4.37299 16.143 4.39399 16.133 4.41599 16.122C4.38399 16.112 4.35299 16.101 4.31999 16.09ZM20.426 16.154C20.279 16.3 20.132 16.447 19.981 16.598C20.074 16.607 20.074 16.607 20.125 16.56C20.142 16.543 20.159 16.525 20.176 16.507C20.194 16.489 20.213 16.47 20.232 16.451C20.26 16.422 20.26 16.422 20.289 16.392C20.308 16.372 20.327 16.352 20.347 16.332C20.395 16.283 20.442 16.234 20.489 16.185C20.468 16.175 20.447 16.164 20.426 16.154ZM19.727 16.598C19.58 16.744 19.433 16.891 19.282 17.042C19.375 17.051 19.375 17.051 19.426 17.004C19.443 16.986 19.46 16.969 19.477 16.951C19.496 16.933 19.514 16.914 19.533 16.895C19.561 16.866 19.561 16.866 19.59 16.836C19.609 16.816 19.628 16.796 19.648 16.776C19.696 16.727 19.743 16.678 19.791 16.629C19.77 16.619 19.749 16.608 19.727 16.598ZM13.469 16.661C13.501 16.756 13.501 16.756 13.501 16.756L13.469 16.661ZM13.437 16.788C13.469 16.851 13.469 16.851 13.469 16.851L13.437 16.788ZM5.05099 16.915C5.06099 16.936 5.07199 16.957 5.08299 16.978C5.10399 16.968 5.12499 16.957 5.14599 16.947C5.11499 16.936 5.08299 16.926 5.05099 16.915ZM5.14599 16.978C5.15699 16.999 5.16699 17.02 5.17799 17.042C5.19899 17.031 5.21999 17.021 5.24099 17.01C5.20999 16.999 5.17899 16.989 5.14599 16.978ZM5.24099 17.042C5.25199 17.063 5.26199 17.083 5.27299 17.105C5.29399 17.094 5.31499 17.084 5.33699 17.073C5.30499 17.063 5.27399 17.052 5.24099 17.042ZM5.78099 17.073C5.79199 17.094 5.80199 17.115 5.81299 17.137C5.83399 17.126 5.85499 17.116 5.87699 17.105C5.84499 17.094 5.81399 17.084 5.78099 17.073ZM5.33699 17.105C5.34699 17.126 5.35799 17.147 5.36899 17.168C5.38999 17.158 5.40999 17.147 5.43199 17.137C5.40099 17.126 5.36899 17.116 5.33699 17.105ZM19.219 17.105C19.208 17.126 19.198 17.147 19.187 17.168C19.208 17.168 19.229 17.168 19.25 17.168C19.24 17.147 19.229 17.127 19.219 17.105ZM5.87699 17.137C5.88699 17.158 5.89799 17.179 5.90899 17.2C5.92999 17.19 5.95099 17.179 5.97199 17.168C5.94099 17.158 5.90899 17.147 5.87699 17.137ZM5.97199 17.2C5.98299 17.221 5.99299 17.242 6.00399 17.264C6.02499 17.253 6.04599 17.243 6.06699 17.232C6.03599 17.221 6.00399 17.211 5.97199 17.2ZM5.52699 17.232C5.53799 17.253 5.54799 17.274 5.55899 17.295C5.57999 17.285 5.60099 17.274 5.62299 17.264C5.59099 17.253 5.55999 17.243 5.52699 17.232ZM6.06699 17.264C6.07799 17.285 6.08799 17.305 6.09899 17.327C6.11999 17.316 6.14099 17.306 6.16299 17.295C6.13099 17.285 6.09999 17.274 6.06699 17.264ZM5.62299 17.295C5.63299 17.316 5.64399 17.337 5.65399 17.359C5.67499 17.348 5.69599 17.338 5.71799 17.327C5.68699 17.316 5.65499 17.306 5.62299 17.295ZM6.16299 17.327C6.17299 17.348 6.18399 17.369 6.19399 17.39C6.21499 17.38 6.23599 17.369 6.25799 17.359C6.22699 17.348 6.19499 17.338 6.16299 17.327ZM6.25799 17.39C6.26799 17.411 6.27899 17.432 6.28999 17.454C6.31099 17.443 6.33199 17.433 6.35299 17.422C6.32199 17.412 6.28999 17.401 6.25799 17.39ZM18.52 18.024C18.373 18.171 18.226 18.317 18.075 18.468C18.168 18.478 18.168 18.478 18.219 18.431C18.236 18.413 18.253 18.396 18.27 18.378C18.288 18.36 18.307 18.341 18.326 18.322C18.354 18.292 18.354 18.292 18.383 18.262C18.402 18.243 18.421 18.223 18.441 18.203C18.489 18.154 18.536 18.105 18.583 18.056C18.562 18.046 18.541 18.035 18.52 18.024ZM7.17899 18.342C7.18999 18.362 7.19999 18.383 7.21099 18.405C7.23199 18.395 7.25299 18.384 7.27499 18.373C7.24299 18.363 7.21199 18.352 7.17899 18.342ZM7.71899 18.373C7.72999 18.394 7.73999 18.415 7.75099 18.437C7.77199 18.426 7.79299 18.416 7.81499 18.405C7.78299 18.395 7.75199 18.384 7.71899 18.373ZM7.27499 18.405C7.28499 18.426 7.29499 18.447 7.30599 18.468C7.32699 18.458 7.34799 18.448 7.36999 18.437C7.33799 18.426 7.30699 18.416 7.27499 18.405ZM7.81499 18.437C7.82499 18.458 7.83599 18.479 7.84599 18.5C7.86699 18.49 7.88799 18.479 7.90999 18.468C7.87799 18.458 7.84699 18.448 7.81499 18.437ZM7.36999 18.468C7.37999 18.489 7.39099 18.51 7.40199 18.532C7.42299 18.521 7.44399 18.511 7.46499 18.5C7.43399 18.49 7.40199 18.479 7.36999 18.468ZM7.90999 18.5C7.91999 18.521 7.93099 18.542 7.94199 18.564C7.96299 18.553 7.98399 18.543 8.00499 18.532C7.97399 18.521 7.94199 18.511 7.90999 18.5ZM17.789 18.5C17.8 18.521 17.81 18.542 17.821 18.564C17.831 18.543 17.842 18.522 17.853 18.5C17.832 18.5 17.811 18.5 17.789 18.5ZM7.46499 18.532C7.47599 18.553 7.48599 18.574 7.49699 18.595C7.51799 18.585 7.53899 18.574 7.55999 18.564C7.52899 18.553 7.49799 18.543 7.46499 18.532ZM18.012 18.532C18.001 18.553 17.991 18.574 17.98 18.595C18.001 18.595 18.022 18.595 18.043 18.595C18.033 18.574 18.022 18.553 18.012 18.532ZM8.00499 18.564C8.01599 18.584 8.02599 18.605 8.03699 18.627C8.05799 18.617 8.07899 18.606 8.09999 18.595C8.06899 18.585 8.03799 18.574 8.00499 18.564ZM17.726 18.564C17.568 18.721 17.411 18.878 17.249 19.039C17.343 19.049 17.343 19.049 17.396 18.998C17.414 18.98 17.432 18.961 17.451 18.942C17.481 18.912 17.481 18.912 17.511 18.881C17.531 18.86 17.552 18.839 17.573 18.817C17.594 18.796 17.614 18.775 17.636 18.753C17.687 18.701 17.738 18.648 17.789 18.595C17.768 18.585 17.747 18.574 17.726 18.564ZM8.09999 18.627C8.11099 18.648 8.12099 18.669 8.13199 18.69C8.15299 18.68 8.17399 18.67 8.19599 18.659C8.16399 18.648 8.13299 18.638 8.09999 18.627ZM9.11699 19.642C9.12699 19.663 9.13799 19.684 9.14899 19.705C9.16999 19.695 9.19099 19.684 9.21199 19.673C9.18099 19.663 9.14899 19.652 9.11699 19.642ZM9.65699 19.673C9.66699 19.694 9.67799 19.715 9.68899 19.737C9.70999 19.726 9.73099 19.716 9.75199 19.705C9.72099 19.695 9.68899 19.684 9.65699 19.673ZM9.21199 19.705C9.22299 19.726 9.23299 19.747 9.24399 19.768C9.26499 19.758 9.28599 19.747 9.30799 19.737C9.27599 19.726 9.24499 19.716 9.21199 19.705ZM9.75199 19.737C9.76299 19.758 9.77299 19.779 9.78399 19.8C9.80499 19.79 9.82599 19.779 9.84799 19.768C9.81599 19.758 9.78499 19.747 9.75199 19.737ZM9.30799 19.768C9.31799 19.789 9.32899 19.81 9.33899 19.832C9.35999 19.821 9.38099 19.811 9.40299 19.8C9.37099 19.79 9.33999 19.779 9.30799 19.768ZM9.84799 19.8C9.85799 19.821 9.86899 19.842 9.87899 19.864C9.89999 19.853 9.92099 19.843 9.94299 19.832C9.91099 19.821 9.87999 19.811 9.84799 19.8ZM9.40299 19.832C9.41299 19.853 9.42399 19.874 9.43499 19.895C9.45599 19.885 9.47699 19.874 9.49799 19.864C9.46699 19.853 9.43499 19.843 9.40299 19.832ZM9.94299 19.864C9.95299 19.885 9.96399 19.906 9.97499 19.927C9.99599 19.917 10.017 19.906 10.038 19.895C10.007 19.885 9.97499 19.874 9.94299 19.864ZM16.582 19.927C16.593 19.948 16.603 19.969 16.614 19.99C16.624 19.969 16.635 19.949 16.646 19.927C16.625 19.927 16.604 19.927 16.582 19.927ZM16.519 19.99C16.382 20.126 16.246 20.263 16.106 20.403C16.21 20.413 16.21 20.413 16.294 20.319C16.328 20.284 16.363 20.248 16.397 20.212C16.415 20.194 16.433 20.176 16.451 20.157C16.495 20.112 16.539 20.067 16.582 20.022C16.561 20.012 16.54 20.001 16.519 19.99ZM15.788 20.466C15.641 20.612 15.494 20.759 15.343 20.91C15.436 20.92 15.436 20.92 15.487 20.872C15.504 20.855 15.521 20.838 15.538 20.82C15.557 20.801 15.575 20.783 15.594 20.763C15.622 20.734 15.622 20.734 15.651 20.704C15.67 20.684 15.689 20.664 15.709 20.644C15.757 20.596 15.804 20.547 15.851 20.498C15.83 20.487 15.809 20.477 15.788 20.466ZM10.864 20.815C10.875 20.836 10.885 20.857 10.896 20.878C10.917 20.868 10.938 20.857 10.959 20.847C10.928 20.836 10.896 20.826 10.864 20.815ZM11.404 20.847C11.415 20.868 11.425 20.888 11.436 20.91C11.457 20.899 11.478 20.889 11.5 20.878C11.468 20.868 11.437 20.857 11.404 20.847ZM10.959 20.878C10.97 20.899 10.98 20.92 10.991 20.942C11.012 20.931 11.033 20.921 11.055 20.91C11.023 20.899 10.992 20.889 10.959 20.878ZM11.5 20.91C11.51 20.931 11.52 20.952 11.531 20.973C11.552 20.963 11.573 20.952 11.595 20.942C11.563 20.931 11.532 20.921 11.5 20.91ZM11.595 20.973C11.605 20.994 11.616 21.015 11.627 21.037C11.648 21.026 11.668 21.016 11.69 21.005C11.659 20.995 11.627 20.984 11.595 20.973ZM11.15 21.005C11.16 21.026 11.171 21.047 11.182 21.069C11.203 21.058 11.224 21.048 11.245 21.037C11.214 21.026 11.182 21.016 11.15 21.005ZM11.69 21.037C11.7 21.058 11.711 21.079 11.722 21.1C11.743 21.09 11.764 21.079 11.785 21.069C11.754 21.058 11.722 21.048 11.69 21.037ZM11.245 21.069C11.256 21.089 11.266 21.11 11.277 21.132C11.298 21.122 11.319 21.111 11.341 21.1C11.309 21.09 11.278 21.079 11.245 21.069ZM11.341 21.132C11.351 21.153 11.362 21.174 11.372 21.195C11.393 21.185 11.414 21.174 11.436 21.164C11.405 21.153 11.373 21.143 11.341 21.132ZM11.881 21.164C11.891 21.185 11.902 21.205 11.912 21.227C11.933 21.217 11.954 21.206 11.976 21.195C11.944 21.185 11.913 21.174 11.881 21.164ZM11.976 21.227C11.986 21.248 11.997 21.269 12.008 21.291C12.029 21.28 12.05 21.27 12.071 21.259C12.04 21.248 12.008 21.238 11.976 21.227ZM14.454 21.766C14.443 21.787 14.433 21.808 14.422 21.83C14.453 21.819 14.485 21.809 14.517 21.798C14.496 21.787 14.475 21.777 14.454 21.766ZM14.613 21.861C14.476 21.997 14.34 22.133 14.2 22.273C14.304 22.284 14.304 22.284 14.388 22.19C14.422 22.155 14.457 22.119 14.491 22.083C14.509 22.065 14.527 22.047 14.545 22.028C14.589 21.983 14.633 21.938 14.676 21.893C14.655 21.882 14.634 21.872 14.613 21.861ZM12.993 21.893C13.003 21.914 13.013 21.935 13.024 21.956C13.056 21.946 13.087 21.935 13.12 21.925C13.078 21.914 13.036 21.904 12.993 21.893ZM13.31 22.02C13.437 22.051 13.437 22.051 13.437 22.051L13.31 22.02ZM13.882 22.02C14.009 22.051 14.009 22.051 14.009 22.051L13.882 22.02ZM12.707 22.051C12.717 22.072 12.727 22.093 12.738 22.115C12.759 22.104 12.78 22.094 12.802 22.083C12.77 22.073 12.739 22.062 12.707 22.051ZM13.469 22.051C13.469 22.062 13.469 22.072 13.469 22.083C13.605 22.083 13.741 22.083 13.882 22.083C13.882 22.073 13.882 22.062 13.882 22.051C13.746 22.051 13.609 22.051 13.469 22.051ZM12.897 22.178C12.908 22.199 12.918 22.22 12.929 22.242C12.95 22.231 12.971 22.221 12.993 22.21C12.961 22.199 12.93 22.189 12.897 22.178ZM12.993 22.242C13.003 22.263 13.013 22.284 13.024 22.305C13.045 22.295 13.066 22.284 13.088 22.273C13.056 22.263 13.025 22.253 12.993 22.242ZM13.437 22.464C13.437 22.474 13.437 22.485 13.437 22.495C13.584 22.495 13.731 22.495 13.882 22.495C13.882 22.485 13.882 22.474 13.882 22.464C13.735 22.464 13.588 22.464 13.437 22.464ZM13.596 23.129C13.723 23.161 13.723 23.161 13.723 23.161L13.596 23.129Z" fill="#262223"/>
<path d="M18.393 2.392C18.498 2.453 18.596 2.519 18.693 2.593C19.226 2.99 19.848 3.266 20.489 3.439C20.473 3.636 20.385 3.797 20.301 3.972C20.121 4.353 19.95 4.737 19.781 5.123C19.768 5.151 19.757 5.178 19.744 5.207C19.643 5.436 19.543 5.666 19.443 5.896C19.348 6.113 19.252 6.329 19.149 6.542C19.072 6.705 18.999 6.868 18.934 7.036C18.885 7.157 18.827 7.275 18.771 7.393C18.677 7.594 18.589 7.799 18.503 8.004C18.435 8.164 18.364 8.321 18.29 8.478C18.166 8.741 18.049 9.007 17.933 9.273C17.87 9.416 17.808 9.559 17.745 9.702C17.733 9.73 17.72 9.759 17.707 9.788C17.579 10.079 17.449 10.369 17.317 10.659C17.216 10.883 17.12 11.107 17.027 11.334C17.006 11.334 16.985 11.334 16.963 11.334C16.949 11.307 16.949 11.307 16.934 11.278C16.736 10.909 16.472 10.68 16.074 10.541C15.733 10.454 15.382 10.471 15.033 10.474C14.974 10.474 14.915 10.475 14.855 10.475C14.711 10.476 14.566 10.477 14.422 10.478C14.508 10.249 14.595 10.023 14.702 9.802C14.718 9.768 14.718 9.768 14.735 9.734C14.85 9.494 14.969 9.257 15.089 9.019C15.146 8.908 15.202 8.796 15.258 8.685C15.277 8.647 15.277 8.647 15.297 8.608C15.384 8.435 15.468 8.261 15.551 8.086C15.76 7.647 15.977 7.211 16.195 6.776C16.233 6.7 16.271 6.624 16.309 6.548C16.399 6.371 16.488 6.193 16.577 6.015C16.678 5.815 16.778 5.614 16.879 5.413C17.02 5.133 17.16 4.852 17.301 4.571C17.35 4.474 17.399 4.377 17.447 4.28C17.503 4.169 17.558 4.059 17.613 3.949C17.636 3.903 17.659 3.858 17.682 3.812C17.697 3.782 17.697 3.782 17.712 3.752C17.787 3.603 17.858 3.453 17.928 3.302C18.073 2.993 18.232 2.693 18.393 2.392Z" fill="#ECBF50"/>
<path d="M20.871 3.566C21.016 3.56 21.145 3.567 21.288 3.597C21.498 3.638 21.703 3.638 21.917 3.637C21.955 3.637 21.992 3.638 22.031 3.638C22.275 3.637 22.506 3.614 22.745 3.566C22.699 3.801 22.625 4.016 22.533 4.237C22.443 4.458 22.357 4.681 22.275 4.905C22.265 4.932 22.256 4.959 22.246 4.987C22.206 5.096 22.167 5.205 22.128 5.314C21.946 5.819 21.747 6.313 21.519 6.798C21.439 6.971 21.361 7.145 21.284 7.319C21.247 7.4 21.211 7.48 21.175 7.561C21.166 7.582 21.157 7.602 21.147 7.623C21.05 7.839 20.953 8.055 20.855 8.271C20.837 8.312 20.818 8.353 20.8 8.394C20.683 8.652 20.565 8.909 20.445 9.165C20.395 9.271 20.346 9.377 20.297 9.483C20.192 9.708 20.084 9.933 19.977 10.157C19.958 10.197 19.938 10.238 19.919 10.278C19.803 10.522 19.681 10.758 19.536 10.985C19.513 10.975 19.489 10.964 19.465 10.954C18.801 10.777 18.047 11.197 17.471 11.495C17.408 11.524 17.408 11.524 17.344 11.524C17.38 11.379 17.425 11.267 17.503 11.137C17.546 11.062 17.573 10.981 17.602 10.9C17.635 10.815 17.673 10.733 17.712 10.65C17.805 10.452 17.893 10.251 17.98 10.05C18.064 9.855 18.149 9.66 18.24 9.467C18.323 9.292 18.396 9.113 18.468 8.933C18.517 8.812 18.57 8.696 18.629 8.58C18.712 8.417 18.784 8.251 18.855 8.082C19.092 7.525 19.092 7.525 19.185 7.345C19.284 7.15 19.363 6.946 19.445 6.744C19.537 6.517 19.641 6.296 19.747 6.075C19.836 5.888 19.92 5.699 20 5.508C20.045 5.404 20.092 5.301 20.14 5.199C20.224 5.019 20.303 4.836 20.381 4.654C20.431 4.536 20.484 4.42 20.537 4.304C20.604 4.157 20.671 4.009 20.737 3.861C20.75 3.832 20.764 3.803 20.777 3.773C20.808 3.704 20.839 3.635 20.871 3.566Z" fill="#CBB06D"/>
<path d="M14.8029 10.795C14.9379 10.793 15.0719 10.792 15.2069 10.792C15.2529 10.791 15.2979 10.791 15.3439 10.79C15.4099 10.79 15.4759 10.789 15.5419 10.789C15.6009 10.788 15.6009 10.788 15.6609 10.788C15.7559 10.795 15.7559 10.795 15.8199 10.858C15.8729 10.878 15.9279 10.897 15.9829 10.914C16.2609 11.014 16.4309 11.146 16.5739 11.407C16.6779 11.632 16.7579 11.882 16.6769 12.127C16.6279 12.182 16.6279 12.182 16.5819 12.222C16.5929 12.253 16.6029 12.285 16.6139 12.317C16.6349 12.304 16.6549 12.292 16.6769 12.279C16.7039 12.262 16.7319 12.245 16.7609 12.228C16.7879 12.211 16.8149 12.195 16.8429 12.178C16.9349 12.125 17.0279 12.078 17.1219 12.032C17.1659 12.008 17.2109 11.985 17.2549 11.961C18.6369 11.22 18.6369 11.22 19.1209 11.235C19.1579 11.236 19.1579 11.236 19.1959 11.237C19.2229 11.238 19.2229 11.238 19.2499 11.239C19.2079 11.334 19.1619 11.398 19.0859 11.469C19.0049 11.547 18.9299 11.626 18.8569 11.711C18.7529 11.832 18.6399 11.944 18.5259 12.056C18.4419 12.141 18.3649 12.23 18.2869 12.32C18.2169 12.399 18.1419 12.472 18.0669 12.546C18.0099 12.604 17.9559 12.665 17.9019 12.727C17.8059 12.839 17.7029 12.943 17.5979 13.046C17.5169 13.128 17.4419 13.215 17.3669 13.302C17.3139 13.362 17.2589 13.418 17.2009 13.474C17.1249 13.55 17.0529 13.627 16.9829 13.708C16.8779 13.83 16.7659 13.941 16.6519 14.054C16.5679 14.139 16.4909 14.228 16.4129 14.318C16.3429 14.397 16.2679 14.47 16.1929 14.544C16.1349 14.602 16.0819 14.663 16.0279 14.725C15.9329 14.835 15.8319 14.938 15.7269 15.039C15.6619 15.102 15.6619 15.102 15.6229 15.164C15.5549 15.261 15.5089 15.321 15.3889 15.347C15.2949 15.351 15.2029 15.349 15.1089 15.343C15.0759 15.342 15.0439 15.341 15.0099 15.34C14.9309 15.338 14.8509 15.334 14.7709 15.329C14.7559 15.298 14.7559 15.298 14.7399 15.266C14.6839 15.246 14.6279 15.229 14.5709 15.212C14.3529 15.143 14.1679 15.042 13.9769 14.917C13.9429 14.895 13.9079 14.873 13.8719 14.85C13.7789 14.692 13.8239 14.522 13.8499 14.346C13.8529 14.323 13.8569 14.3 13.8599 14.276C13.8669 14.225 13.8749 14.175 13.8819 14.124C13.8819 14.095 13.8819 14.066 13.8819 14.035C13.8819 13.966 13.8819 13.966 13.9139 13.903C13.9339 13.802 13.9459 13.71 13.9459 13.607C13.9459 13.522 13.9459 13.522 13.9769 13.49C13.9949 13.385 14.0089 13.286 14.0069 13.179C14.0089 13.11 14.0089 13.11 14.0729 13.046C14.0769 12.958 14.0719 12.872 14.0689 12.784C14.0729 12.692 14.0939 12.651 14.1359 12.571C14.1489 12.485 14.1489 12.485 14.1539 12.394C14.1599 12.296 14.1679 12.221 14.1999 12.127C14.2609 11.872 14.2709 11.627 14.2629 11.366C14.2839 11.355 14.3049 11.345 14.3269 11.334C14.3419 11.241 14.3419 11.241 14.3469 11.132C14.3489 11.095 14.3509 11.058 14.3539 11.02C14.3569 10.956 14.3579 10.891 14.3579 10.827C14.5049 10.827 14.6519 10.827 14.8029 10.827C14.8029 10.816 14.8029 10.806 14.8029 10.795ZM14.3899 10.858C14.3899 10.869 14.3899 10.879 14.3899 10.89C14.4949 10.89 14.5999 10.89 14.7079 10.89C14.7079 10.88 14.7079 10.869 14.7079 10.858C14.6029 10.858 14.4979 10.858 14.3899 10.858ZM16.5179 12.285C16.5499 12.349 16.5499 12.349 16.5499 12.349L16.5179 12.285Z" fill="#EED7BD"/>
<path d="M19.0599 0.807C19.1019 0.809 19.1019 0.809 19.1439 0.81C19.2479 0.814 19.3529 0.817 19.4569 0.821C19.5009 0.822 19.5459 0.824 19.5909 0.825C19.6559 0.827 19.7209 0.83 19.7859 0.832C19.8249 0.833 19.8639 0.834 19.9039 0.836C19.9749 0.838 20.0469 0.838 20.1179 0.835C20.2039 0.839 20.2039 0.839 20.2669 0.902C20.4349 0.957 20.5999 0.973 20.7749 0.966C20.7909 0.997 20.7909 0.997 20.8069 1.029C20.8679 1.057 20.8679 1.057 20.9419 1.08C20.9699 1.09 20.9979 1.099 21.0259 1.109C21.0559 1.118 21.0849 1.128 21.1149 1.138C21.2939 1.198 21.4649 1.258 21.6329 1.346C21.6749 1.357 21.7179 1.368 21.7599 1.378C21.8279 1.407 21.8839 1.439 21.9429 1.484C22.0239 1.544 22.1079 1.597 22.1929 1.651C22.5389 1.881 22.8349 2.151 23.0309 2.519C23.0409 2.519 23.0519 2.519 23.0619 2.519C23.0619 2.603 23.0619 2.687 23.0619 2.773C23.0309 2.789 23.0309 2.789 22.9989 2.805C22.9849 2.855 22.9719 2.906 22.9589 2.957C22.9139 3.078 22.8889 3.113 22.7709 3.17C22.6239 3.211 22.4769 3.24 22.3259 3.265C22.2409 3.278 22.2409 3.278 22.1769 3.297C22.1029 3.313 22.0369 3.316 21.9609 3.316C21.9339 3.316 21.9059 3.316 21.8769 3.316C21.8339 3.316 21.8339 3.316 21.7899 3.316C21.7609 3.316 21.7319 3.316 21.7019 3.316C21.6739 3.316 21.6469 3.316 21.6179 3.316C21.5929 3.316 21.5669 3.316 21.5409 3.316C21.4739 3.312 21.4739 3.312 21.3789 3.28C21.3519 3.281 21.3249 3.282 21.2969 3.282C21.2199 3.28 21.2199 3.28 21.1559 3.217C21.0859 3.197 21.0139 3.18 20.9419 3.165C20.9029 3.157 20.8649 3.149 20.8249 3.14C20.7209 3.123 20.6259 3.118 20.5209 3.122C20.5109 3.101 20.4999 3.08 20.4889 3.058C20.4369 3.058 20.3849 3.058 20.3299 3.058C20.3199 3.037 20.3099 3.016 20.2989 2.995C20.2429 2.966 20.2429 2.966 20.1729 2.942C20.1469 2.932 20.1209 2.922 20.0939 2.912C20.0659 2.901 20.0379 2.891 20.0089 2.88C19.5649 2.707 19.1759 2.505 18.8059 2.202C18.7769 2.179 18.7489 2.157 18.7189 2.133C18.4979 1.946 18.2979 1.722 18.2159 1.437C18.2409 1.263 18.3319 1.2 18.4649 1.092C18.6559 0.953 18.8249 0.875 19.0599 0.839C19.0599 0.828 19.0599 0.818 19.0599 0.807ZM20.0759 1.314C20.0759 1.325 20.0759 1.335 20.0759 1.346C20.1389 1.346 20.2019 1.346 20.2669 1.346C20.2669 1.336 20.2669 1.325 20.2669 1.314C20.2039 1.314 20.1409 1.314 20.0759 1.314ZM20.3939 1.314C20.3939 1.325 20.3939 1.335 20.3939 1.346C20.4779 1.346 20.5619 1.346 20.6479 1.346C20.6479 1.336 20.6479 1.325 20.6479 1.314C20.5639 1.314 20.4799 1.314 20.3939 1.314ZM19.6949 1.568C19.7269 1.631 19.7269 1.631 19.7269 1.631L19.6949 1.568ZM19.6629 1.631C19.6629 1.726 19.6629 1.82 19.6629 1.917C19.6739 1.917 19.6839 1.917 19.6949 1.917C19.6949 1.823 19.6949 1.729 19.6949 1.631C19.6849 1.631 19.6739 1.631 19.6629 1.631ZM21.4109 1.663C21.4309 1.684 21.4519 1.705 21.4739 1.727C21.4739 1.706 21.4739 1.685 21.4739 1.663C21.4529 1.663 21.4319 1.663 21.4109 1.663ZM21.6009 1.822C21.6119 1.853 21.6219 1.885 21.6329 1.917C21.6329 1.885 21.6329 1.854 21.6329 1.822C21.6219 1.822 21.6119 1.822 21.6009 1.822ZM19.6949 1.917C19.7269 1.98 19.7269 1.98 19.7269 1.98L19.6949 1.917ZM21.6649 1.917C21.6969 1.98 21.6969 1.98 21.6969 1.98L21.6649 1.917ZM19.7269 1.98C19.7589 2.044 19.7589 2.044 19.7589 2.044L19.7269 1.98ZM21.6969 1.98C21.7279 2.044 21.7279 2.044 21.7279 2.044L21.6969 1.98ZM21.7279 2.044C21.7279 2.127 21.7279 2.211 21.7279 2.297C21.7389 2.297 21.7489 2.297 21.7599 2.297C21.7599 2.214 21.7599 2.13 21.7599 2.044C21.7499 2.044 21.7389 2.044 21.7279 2.044ZM19.9809 2.266C19.9919 2.287 20.0019 2.307 20.0129 2.329C20.0339 2.319 20.0549 2.308 20.0759 2.297C20.0449 2.287 20.0139 2.276 19.9809 2.266ZM21.6969 2.297C21.7279 2.361 21.7279 2.361 21.7279 2.361L21.6969 2.297ZM21.6649 2.361C21.6969 2.424 21.6969 2.424 21.6969 2.424L21.6649 2.361ZM21.5689 2.456C21.5589 2.477 21.5479 2.498 21.5379 2.519C21.5689 2.509 21.6009 2.498 21.6329 2.488C21.6119 2.477 21.5909 2.467 21.5689 2.456ZM20.5529 2.551C20.6799 2.583 20.6799 2.583 20.6799 2.583L20.5529 2.551ZM20.6799 2.583C20.6799 2.593 20.6799 2.604 20.6799 2.614C20.7319 2.614 20.7849 2.614 20.8389 2.614C20.8389 2.604 20.8389 2.593 20.8389 2.583C20.7859 2.583 20.7339 2.583 20.6799 2.583ZM21.2839 2.583C21.4109 2.614 21.4109 2.614 21.4109 2.614L21.2839 2.583ZM20.8709 2.614C20.8709 2.625 20.8709 2.635 20.8709 2.646C20.9959 2.646 21.1219 2.646 21.2519 2.646C21.2519 2.636 21.2519 2.625 21.2519 2.614C21.1259 2.614 20.9999 2.614 20.8709 2.614Z" fill="#EED7BD"/>
<path d="M19.121 11.235C19.158 11.236 19.158 11.236 19.196 11.237C19.223 11.238 19.223 11.238 19.25 11.239C19.208 11.334 19.162 11.398 19.086 11.469C19.005 11.547 18.93 11.626 18.857 11.711C18.753 11.832 18.64 11.944 18.526 12.056C18.442 12.141 18.365 12.23 18.287 12.32C18.217 12.399 18.142 12.472 18.067 12.546C18.01 12.604 17.956 12.665 17.902 12.727C17.806 12.839 17.703 12.943 17.598 13.046C17.517 13.128 17.442 13.215 17.367 13.302C17.314 13.362 17.259 13.418 17.201 13.474C17.125 13.55 17.053 13.627 16.983 13.708C16.878 13.83 16.766 13.941 16.652 14.054C16.568 14.139 16.491 14.228 16.413 14.318C16.343 14.397 16.268 14.47 16.193 14.544C16.135 14.602 16.082 14.663 16.028 14.725C15.933 14.835 15.832 14.938 15.727 15.039C15.662 15.102 15.662 15.102 15.623 15.164C15.555 15.261 15.509 15.321 15.389 15.347C15.295 15.351 15.203 15.349 15.109 15.343C15.076 15.342 15.044 15.341 15.01 15.34C14.931 15.338 14.851 15.334 14.771 15.329C14.771 15.319 14.771 15.308 14.771 15.298C14.824 15.298 14.876 15.298 14.93 15.298C14.939 15.27 14.947 15.242 14.956 15.214C14.993 15.11 15.036 15.024 15.092 14.93C15.111 14.896 15.131 14.863 15.151 14.828C15.172 14.793 15.193 14.757 15.214 14.721C15.236 14.684 15.257 14.647 15.279 14.61C15.322 14.536 15.365 14.462 15.409 14.388C15.494 14.243 15.578 14.097 15.663 13.952C15.677 13.928 15.691 13.903 15.706 13.878C15.796 13.722 15.883 13.566 15.969 13.407C16.054 13.252 16.147 13.102 16.24 12.951C16.283 12.88 16.326 12.809 16.37 12.737C16.384 12.714 16.398 12.691 16.413 12.668C16.489 12.54 16.538 12.437 16.55 12.285C16.582 12.285 16.613 12.285 16.646 12.285C16.716 12.252 16.784 12.216 16.852 12.178C16.895 12.155 16.938 12.132 16.981 12.108C17.004 12.096 17.027 12.083 17.051 12.071C18.615 11.219 18.615 11.219 19.121 11.235Z" fill="#D4BBA2"/>
<path d="M9.81595 9.432C9.97695 9.593 10.0469 9.738 10.0519 9.965C10.0489 10.154 10.0069 10.275 9.87895 10.415C9.72895 10.541 9.56295 10.609 9.36495 10.603C9.29195 10.595 9.22095 10.584 9.14895 10.573C9.09495 10.567 9.04195 10.561 8.98795 10.555C8.94695 10.551 8.90495 10.546 8.86295 10.541C8.77995 10.693 8.79995 10.822 8.83095 10.985C8.84195 11.023 8.85295 11.061 8.86495 11.1C8.90795 11.256 8.91395 11.375 8.85895 11.528C8.71995 11.74 8.57995 11.8 8.33895 11.853C8.13395 11.89 7.92695 11.914 7.71895 11.937C7.72995 11.968 7.73995 11.999 7.75095 12.032C7.77395 12.252 7.77395 12.432 7.63995 12.615C7.51895 12.744 7.38795 12.82 7.21095 12.83C6.97995 12.831 6.76795 12.819 6.54395 12.761C6.51195 12.883 6.51395 12.975 6.54195 13.096C6.59295 13.329 6.62395 13.574 6.52395 13.795C6.39395 13.925 6.28695 13.971 6.10495 13.976C5.96795 13.972 5.84095 13.949 5.70895 13.913C5.69095 13.91 5.67295 13.906 5.65395 13.903C5.61095 13.939 5.61095 13.939 5.60895 14.037C5.62695 14.195 5.69295 14.217 5.81295 14.315C5.83695 14.432 5.82995 14.48 5.76395 14.58C5.65295 14.654 5.59495 14.654 5.46395 14.632C5.28095 14.542 5.17395 14.418 5.10195 14.229C5.04995 14.037 5.07195 13.881 5.16895 13.707C5.27395 13.557 5.40995 13.462 5.59095 13.427C5.77195 13.43 5.92895 13.462 6.09895 13.522C6.09195 13.494 6.08495 13.466 6.07795 13.437C5.93095 12.806 5.93095 12.806 6.08995 12.53C6.16895 12.424 6.26595 12.345 6.38495 12.285C6.55195 12.277 6.68995 12.295 6.85095 12.335C6.97195 12.358 7.08795 12.353 7.21095 12.349C7.23395 12.217 7.24295 12.098 7.23895 11.964C7.23795 11.831 7.24495 11.753 7.33795 11.651C7.57595 11.465 7.83895 11.425 8.13195 11.394C8.15695 11.391 8.18095 11.388 8.20695 11.385C8.26695 11.379 8.32595 11.372 8.38595 11.366C8.37895 11.343 8.37295 11.32 8.36495 11.296C8.27695 10.976 8.23095 10.668 8.37395 10.357C8.48395 10.184 8.63395 10.098 8.83095 10.05C8.98595 10.026 9.09595 10.05 9.24395 10.097C9.37095 10.129 9.37095 10.129 9.49795 10.097C9.53595 9.941 9.53595 9.941 9.48195 9.796C9.43495 9.717 9.43495 9.717 9.43495 9.602C9.46595 9.495 9.46595 9.495 9.53595 9.432C9.64895 9.391 9.70195 9.391 9.81595 9.432Z" fill="#272425"/>
<path d="M9.498 12.063C9.708 12.196 9.814 12.39 9.881 12.624C9.879 12.76 9.839 12.816 9.752 12.92C9.617 13.038 9.494 13.052 9.318 13.064C9.261 13.068 9.261 13.068 9.204 13.072C9.161 13.075 9.161 13.075 9.117 13.078C9.119 13.116 9.121 13.155 9.123 13.194C9.139 13.681 9.139 13.681 9.015 13.855C8.847 13.997 8.661 14.06 8.452 14.116C8.415 14.127 8.415 14.127 8.377 14.138C8.317 14.155 8.256 14.171 8.196 14.188C8.197 14.207 8.198 14.226 8.199 14.246C8.208 14.469 8.172 14.638 8.031 14.814C7.828 14.976 7.646 15.028 7.387 15.054C7.302 15.068 7.302 15.068 7.26 15.136C7.255 15.158 7.249 15.18 7.243 15.203C7.274 15.256 7.306 15.308 7.338 15.361C7.334 15.451 7.319 15.501 7.269 15.575C7.181 15.636 7.128 15.649 7.02 15.646C6.906 15.579 6.821 15.494 6.752 15.381C6.715 15.208 6.715 15.091 6.782 14.929C6.889 14.765 7.042 14.66 7.223 14.59C7.367 14.563 7.51 14.548 7.656 14.537C7.654 14.507 7.651 14.478 7.649 14.448C7.633 14.091 7.633 14.091 7.735 13.946C7.955 13.708 8.274 13.659 8.577 13.585C8.576 13.549 8.575 13.514 8.574 13.476C8.563 12.985 8.563 12.985 8.672 12.793C8.795 12.672 8.913 12.637 9.079 12.61C9.101 12.606 9.123 12.602 9.146 12.598C9.2 12.589 9.254 12.58 9.308 12.571C9.296 12.557 9.284 12.543 9.272 12.529C9.149 12.375 9.149 12.375 9.147 12.246C9.213 12.074 9.32 12.035 9.498 12.063Z" fill="#282426"/>
<path d="M12.834 8.607C13.008 8.738 13.15 8.953 13.247 9.146C13.258 9.316 13.262 9.422 13.151 9.558C12.972 9.746 12.751 9.805 12.494 9.818C12.458 9.815 12.458 9.815 12.421 9.812C12.423 9.84 12.426 9.867 12.429 9.895C12.417 10.053 12.357 10.138 12.237 10.241C12.045 10.381 11.743 10.541 11.5 10.541C11.515 10.586 11.515 10.586 11.531 10.631C11.575 10.787 11.591 10.952 11.563 11.112C11.469 11.272 11.336 11.332 11.174 11.408C11.15 11.419 11.127 11.43 11.102 11.442C11.044 11.47 10.986 11.497 10.928 11.524C10.928 11.556 10.928 11.587 10.928 11.62C10.943 11.635 10.943 11.635 10.96 11.651C10.972 11.763 10.972 11.822 10.91 11.917C10.801 11.989 10.738 11.988 10.61 11.968C10.506 11.883 10.4 11.787 10.377 11.65C10.374 11.474 10.394 11.375 10.515 11.239C10.677 11.093 10.853 11.001 11.055 10.922C11.05 10.899 11.045 10.877 11.04 10.853C11.007 10.68 10.979 10.504 11.059 10.341C11.225 10.129 11.465 10.054 11.714 9.975C11.789 9.948 11.849 9.925 11.913 9.876C11.935 9.802 11.938 9.739 11.939 9.662C11.947 9.548 11.998 9.484 12.071 9.4C12.197 9.319 12.328 9.333 12.472 9.336C12.554 9.337 12.628 9.326 12.707 9.305C12.688 9.197 12.648 9.138 12.578 9.055C12.511 8.969 12.485 8.93 12.464 8.821C12.511 8.616 12.636 8.576 12.834 8.607Z" fill="#272425"/>
<path d="M21.379 1.631C21.543 1.743 21.649 1.861 21.728 2.044C21.749 2.166 21.74 2.268 21.694 2.385C21.593 2.502 21.483 2.571 21.331 2.595C21.24 2.601 21.15 2.602 21.059 2.601C21.01 2.6 21.01 2.6 20.961 2.6C20.534 2.588 20.162 2.449 19.857 2.141C19.728 1.995 19.681 1.902 19.684 1.705C19.702 1.581 19.762 1.523 19.854 1.441C20.284 1.161 20.98 1.389 21.379 1.631Z" fill="#272223"/>
<path d="M17.948 1.885C18.027 1.956 18.027 1.956 18.107 2.044C18.107 2.17 18.093 2.215 18.039 2.326C18.025 2.356 18.01 2.386 17.996 2.417C17.98 2.449 17.964 2.481 17.948 2.513C17.924 2.563 17.924 2.563 17.9 2.613C17.792 2.833 17.68 3.05 17.563 3.265C17.339 3.68 17.14 4.107 16.935 4.531C16.925 4.552 16.914 4.573 16.904 4.595C16.876 4.653 16.848 4.711 16.82 4.769C16.783 4.844 16.747 4.918 16.709 4.993C16.677 4.929 16.677 4.929 16.697 4.866C16.714 4.826 16.714 4.826 16.732 4.787C16.744 4.757 16.757 4.727 16.77 4.697C16.784 4.664 16.798 4.632 16.812 4.598C16.842 4.528 16.872 4.458 16.902 4.389C16.917 4.352 16.933 4.316 16.948 4.278C17.023 4.103 17.094 3.926 17.166 3.75C17.696 2.447 17.696 2.447 17.948 1.885Z" fill="#E8CE85"/>
</svg>
