<svg width="124" height="124" viewBox="0 0 124 124" fill="none" xmlns="http://www.w3.org/2000/svg">
<mask id="mask0_17_2513" style="mask-type:alpha" maskUnits="userSpaceOnUse" x="0" y="0" width="124" height="124">
<rect width="124" height="124" fill="#D9D9D9"/>
</mask>
<g mask="url(#mask0_17_2513)">
<path d="M46.5 82.6667H56.8334V41.3334H46.5V82.6667ZM67.1667 82.6667H77.5V41.3334H67.1667V82.6667ZM62 113.667C54.8528 113.667 48.1362 112.31 41.85 109.598C35.5639 106.885 30.0959 103.204 25.4459 98.5542C20.7959 93.9042 17.1146 88.4361 14.4021 82.15C11.6896 75.8639 10.3334 69.1473 10.3334 62C10.3334 54.8528 11.6896 48.1362 14.4021 41.85C17.1146 35.5639 20.7959 30.0959 25.4459 25.4459C30.0959 20.7959 35.5639 17.1146 41.85 14.4021C48.1362 11.6896 54.8528 10.3334 62 10.3334C69.1473 10.3334 75.8639 11.6896 82.15 14.4021C88.4361 17.1146 93.9042 20.7959 98.5542 25.4459C103.204 30.0959 106.885 35.5639 109.598 41.85C112.31 48.1362 113.667 54.8528 113.667 62C113.667 69.1473 112.31 75.8639 109.598 82.15C106.885 88.4361 103.204 93.9042 98.5542 98.5542C93.9042 103.204 88.4361 106.885 82.15 109.598C75.8639 112.31 69.1473 113.667 62 113.667ZM62 103.333C73.5389 103.333 83.3125 99.3292 91.3209 91.3209C99.3292 83.3125 103.333 73.5389 103.333 62C103.333 50.4612 99.3292 40.6875 91.3209 32.6792C83.3125 24.6709 73.5389 20.6667 62 20.6667C50.4612 20.6667 40.6875 24.6709 32.6792 32.6792C24.6709 40.6875 20.6667 50.4612 20.6667 62C20.6667 73.5389 24.6709 83.3125 32.6792 91.3209C40.6875 99.3292 50.4612 103.333 62 103.333Z" fill="#3A665E"/>
</g>
</svg>
