<svg width="24" height="24" viewBox="0 0 24 24" fill="none" xmlns="http://www.w3.org/2000/svg">
<mask id="mask0_6_329" style="mask-type:alpha" maskUnits="userSpaceOnUse" x="0" y="0" width="24" height="24">
<rect width="24" height="24" fill="#D9D9D9"/>
</mask>
<g mask="url(#mask0_6_329)">
<path d="M6.75 22C6 22 5.35417 21.7458 4.8125 21.2375C4.27083 20.7292 4 20.1 4 19.35V5.4C4 4.76667 4.19583 4.2 4.5875 3.7C4.97917 3.2 5.49167 2.88334 6.125 2.75L16 0.800003V16.8L6.525 18.7C6.375 18.7333 6.25 18.8125 6.15 18.9375C6.05 19.0625 6 19.2 6 19.35C6 19.5333 6.075 19.6875 6.225 19.8125C6.375 19.9375 6.55 20 6.75 20H18V4H20V22H6.75ZM9 16.175L14 15.2V3.25L9 4.225V16.175ZM7 16.575V4.625L6.625 4.7C6.44167 4.73334 6.29167 4.8125 6.175 4.9375C6.05833 5.0625 6 5.21667 6 5.4V16.825C6.08333 16.7917 6.17083 16.7625 6.2625 16.7375C6.35417 16.7125 6.44167 16.6917 6.525 16.675L7 16.575Z" fill="#1A1C15"/>
</g>
</svg>
