<svg width="64" height="64" viewBox="0 0 64 64" fill="none" xmlns="http://www.w3.org/2000/svg">
<mask id="mask0_17_2519" style="mask-type:alpha" maskUnits="userSpaceOnUse" x="0" y="0" width="64" height="64">
<rect width="64" height="64" fill="#D9D9D9"/>
</mask>
<g mask="url(#mask0_17_2519)">
<path d="M32 58.6667C28.6667 58.6667 25.5444 58.0334 22.6333 56.7667C19.7222 55.5 17.1889 53.7889 15.0333 51.6334C12.8778 49.4778 11.1667 46.9445 9.9 44.0334C8.63333 41.1222 8 38 8 34.6667C8 31.3334 8.63333 28.2111 9.9 25.3C11.1667 22.3889 12.8778 19.8556 15.0333 17.7C17.1889 15.5445 19.7222 13.8334 22.6333 12.5667C25.5444 11.3 28.6667 10.6667 32 10.6667H32.4L28.2667 6.53335L32 2.66669L42.6667 13.3334L32 24L28.2667 20.1334L32.4 16H32C26.8 16 22.3889 17.8111 18.7667 21.4334C15.1444 25.0556 13.3333 29.4667 13.3333 34.6667C13.3333 39.8667 15.1444 44.2778 18.7667 47.9C22.3889 51.5222 26.8 53.3334 32 53.3334C37.2 53.3334 41.6111 51.5222 45.2333 47.9C48.8556 44.2778 50.6667 39.8667 50.6667 34.6667H56C56 38 55.3667 41.1222 54.1 44.0334C52.8333 46.9445 51.1222 49.4778 48.9667 51.6334C46.8111 53.7889 44.2778 55.5 41.3667 56.7667C38.4556 58.0334 35.3333 58.6667 32 58.6667ZM25.3333 42.6667V38.6667H33.3333V36H25.3333V26.6667H37.3333V30.6667H29.3333V33.3334H34.6667C35.4222 33.3334 36.0556 33.5889 36.5667 34.1C37.0778 34.6111 37.3333 35.2445 37.3333 36V40C37.3333 40.7556 37.0778 41.3889 36.5667 41.9C36.0556 42.4111 35.4222 42.6667 34.6667 42.6667H25.3333Z" fill="#396660" fill-opacity="0.5"/>
</g>
</svg>
