<svg width="104" height="104" viewBox="0 0 104 104" fill="none" xmlns="http://www.w3.org/2000/svg">
<path d="M39.0834 75.2499L75.25 51.9999L39.0834 28.7499V75.2499ZM52 103.667C44.8528 103.667 38.1362 102.31 31.85 99.5978C25.5639 96.8853 20.0959 93.2041 15.4459 88.5541C10.7959 83.9041 7.11462 78.436 4.40212 72.1499C1.68962 65.8638 0.333374 59.1471 0.333374 51.9999C0.333374 44.8527 1.68962 38.136 4.40212 31.8499C7.11462 25.5638 10.7959 20.0958 15.4459 15.4458C20.0959 10.7958 25.5639 7.1145 31.85 4.402C38.1362 1.6895 44.8528 0.333252 52 0.333252C59.1473 0.333252 65.8639 1.6895 72.15 4.402C78.4361 7.1145 83.9042 10.7958 88.5542 15.4458C93.2042 20.0958 96.8855 25.5638 99.598 31.8499C102.31 38.136 103.667 44.8527 103.667 51.9999C103.667 59.1471 102.31 65.8638 99.598 72.1499C96.8855 78.436 93.2042 83.9041 88.5542 88.5541C83.9042 93.2041 78.4361 96.8853 72.15 99.5978C65.8639 102.31 59.1473 103.667 52 103.667ZM52 93.3333C63.5389 93.3333 73.3125 89.3291 81.3209 81.3207C89.3292 73.3124 93.3334 63.5388 93.3334 51.9999C93.3334 40.461 89.3292 30.6874 81.3209 22.6791C73.3125 14.6708 63.5389 10.6666 52 10.6666C40.4612 10.6666 30.6875 14.6708 22.6792 22.6791C14.6709 30.6874 10.6667 40.461 10.6667 51.9999C10.6667 63.5388 14.6709 73.3124 22.6792 81.3207C30.6875 89.3291 40.4612 93.3333 52 93.3333Z" fill="#396660"/>
</svg>
