<svg width="124" height="124" viewBox="0 0 124 124" fill="none" xmlns="http://www.w3.org/2000/svg">
<mask id="mask0_17_2501" style="mask-type:alpha" maskUnits="userSpaceOnUse" x="0" y="0" width="124" height="124">
<rect width="124" height="124" fill="#D9D9D9"/>
</mask>
<g mask="url(#mask0_17_2501)">
<path d="M49.0834 85.2499L85.25 61.9999L49.0834 38.7499V85.2499ZM62 113.667C54.8528 113.667 48.1362 112.31 41.85 109.598C35.5639 106.885 30.0959 103.204 25.4459 98.5541C20.7959 93.9041 17.1146 88.436 14.4021 82.1499C11.6896 75.8638 10.3334 69.1471 10.3334 61.9999C10.3334 54.8527 11.6896 48.136 14.4021 41.8499C17.1146 35.5638 20.7959 30.0958 25.4459 25.4458C30.0959 20.7958 35.5639 17.1145 41.85 14.402C48.1362 11.6895 54.8528 10.3333 62 10.3333C69.1473 10.3333 75.8639 11.6895 82.15 14.402C88.4361 17.1145 93.9042 20.7958 98.5542 25.4458C103.204 30.0958 106.885 35.5638 109.598 41.8499C112.31 48.136 113.667 54.8527 113.667 61.9999C113.667 69.1471 112.31 75.8638 109.598 82.1499C106.885 88.436 103.204 93.9041 98.5542 98.5541C93.9042 103.204 88.4361 106.885 82.15 109.598C75.8639 112.31 69.1473 113.667 62 113.667ZM62 103.333C73.5389 103.333 83.3125 99.3291 91.3209 91.3207C99.3292 83.3124 103.333 73.5388 103.333 61.9999C103.333 50.461 99.3292 40.6874 91.3209 32.6791C83.3125 24.6708 73.5389 20.6666 62 20.6666C50.4612 20.6666 40.6875 24.6708 32.6792 32.6791C24.6709 40.6874 20.6667 50.461 20.6667 61.9999C20.6667 73.5388 24.6709 83.3124 32.6792 91.3207C40.6875 99.3291 50.4612 103.333 62 103.333Z" fill="#396660"/>
</g>
</svg>
