<svg width="50" height="68" viewBox="0 0 50 68" fill="none" xmlns="http://www.w3.org/2000/svg">
<g clip-path="url(#clip0_303_23)">
<path d="M38.5871 0.375024C39.6194 0.749305 40.3169 1.60036 40.8965 2.87502C41.1038 3.68946 41.054 4.05022 40.9055 4.89325C40.5582 5.69837 40.3371 5.84702 39.7328 6.12291C39.4531 6.20836 39.4531 6.20836 39.0201 6.20836C39.0201 6.62086 39.0201 7.03336 39.0201 7.45836C39.1987 7.51637 39.1987 7.51637 39.381 7.57555C40.1512 8.03214 40.8321 8.70025 41.199 9.81325C41.3172 10.3837 41.4041 10.9494 41.4828 11.5339C41.5165 11.7573 41.5502 11.9807 41.585 12.2108C41.699 12.986 41.8046 13.7631 41.9068 14.5417C41.9258 14.6863 41.9448 14.8309 41.9644 14.9798C42.1544 16.4345 42.3394 17.8903 42.5205 19.3473C42.8194 21.7437 43.1505 24.1269 43.5035 26.5078C43.8495 28.8436 44.1861 31.1796 44.4959 33.5261C45.6017 41.8548 46.7842 50.0344 48.6595 58.0844C48.6997 58.2582 48.7399 58.432 48.7814 58.6111C48.8572 58.9383 48.9339 59.2652 49.0113 59.5916C49.1789 60.3146 49.2679 60.8537 49.2679 61.625C48.6847 61.9282 48.1406 62.1211 47.5257 62.229C47.3505 62.26 47.1753 62.291 46.9948 62.3229C46.8002 62.3557 46.6057 62.3884 46.4111 62.4209C46.2587 62.447 46.2587 62.447 46.1032 62.4737C43.2328 62.9648 40.3548 63.3552 37.478 63.7569C35.8548 63.9836 34.2319 64.213 32.609 64.444C32.4509 64.4665 32.2928 64.489 32.1299 64.5122C29.7023 64.8587 27.2789 65.2371 24.8572 65.6615C21.7375 66.2066 18.6134 66.5765 15.4794 66.9048C14.5129 67.0063 13.547 67.1154 12.5814 67.2313C12.4561 67.2463 12.3308 67.2613 12.2017 67.2768C11.7314 67.3332 11.261 67.3899 10.7908 67.4474C10.4812 67.4852 10.1717 67.5223 9.8621 67.5593C9.60471 67.5906 9.60471 67.5906 9.34212 67.6225C7.95617 67.7479 7.95617 67.7479 7.55498 67.4584C7.43715 66.835 7.43715 66.835 7.32946 66.0261C7.3108 65.8861 7.29213 65.7462 7.2729 65.602C7.12094 64.4211 7.02773 63.2408 6.97764 62.0417C6.83326 62.0226 6.68888 62.0036 6.54012 61.9839C5.54045 61.8035 4.56441 61.4284 3.58576 61.0912C3.38242 61.0218 3.17907 60.9525 2.97571 60.8832C2.48129 60.7147 1.98704 60.5452 1.49289 60.375C1.50088 60.218 1.50887 60.0609 1.5171 59.899C1.55437 59.1636 1.59129 58.4282 1.62821 57.6927C1.64077 57.4459 1.65332 57.1991 1.66626 56.9448C1.83563 53.5586 1.95292 50.1755 2.00709 46.7813C2.0101 46.5968 2.01311 46.4123 2.01621 46.2222C2.12336 39.4855 2.15832 32.732 1.9259 26C1.91736 25.7517 1.90883 25.5035 1.90003 25.2477C1.75105 21.1876 1.51754 17.083 0.713777 13.1694C0.596481 12.4908 0.594772 11.9035 0.626879 11.2084C1.57268 10.7321 2.51825 10.6655 3.51359 10.5834C3.4868 10.455 3.46 10.3266 3.4324 10.1944C3.36925 9.75002 3.36925 9.75002 3.51359 9.30732C4.05242 8.57817 4.71165 8.47805 5.42603 8.46096C5.96729 8.50002 5.96729 8.50002 6.4003 8.70836C6.31695 8.58805 6.23359 8.46773 6.14771 8.34377C6.04054 8.18909 5.93337 8.0344 5.82296 7.87502C5.71579 7.76331 5.60862 7.65159 5.4982 7.53648C5.08957 6.73601 5.16274 5.91687 5.24562 4.95836C5.38566 4.26348 5.48608 3.87994 5.91881 3.49433C6.92133 2.86882 7.87077 2.90019 8.89009 3.4219C9.56848 3.85964 9.92867 4.22654 10.2974 5.16669C10.3941 5.82513 10.4031 6.38493 10.2974 7.04169C9.97718 7.64505 9.73112 7.98364 9.25093 8.29169C9.1259 8.39482 9.1259 8.39482 8.99834 8.50002C8.90667 9.02696 8.90667 9.02696 8.854 9.54169C9.03529 9.51656 9.03529 9.51656 9.22023 9.49093C17.6067 8.33729 25.9844 8.22978 34.4014 8.08336C34.2272 7.7909 34.2272 7.7909 34.0496 7.49254C33.7201 6.93924 33.5354 6.54797 33.5354 5.79169C33.7 5.34898 33.7 5.34898 33.9684 4.95836C34.8949 4.72764 35.8335 4.91456 36.7108 5.37502C36.5917 5.20315 36.4726 5.03127 36.3499 4.85419C35.9868 4.22134 35.8971 3.72002 35.9372 2.87991C36.0438 2.01347 36.2238 1.26812 36.6797 0.651717C37.2758 0.13582 37.9159 0.260666 38.5871 0.375024Z" fill="#F1CA6D"/>
<path d="M38.5871 0.375024C39.6194 0.749305 40.3169 1.60036 40.8965 2.87502C41.1038 3.68946 41.054 4.05022 40.9055 4.89325C40.5582 5.69837 40.3371 5.84702 39.7328 6.12291C39.4531 6.20836 39.4531 6.20836 39.0201 6.20836C39.0201 6.62086 39.0201 7.03336 39.0201 7.45836C39.1987 7.51637 39.1987 7.51637 39.381 7.57555C40.1512 8.03214 40.8321 8.70025 41.199 9.81325C41.3172 10.3837 41.4041 10.9494 41.4828 11.5339C41.5165 11.7573 41.5502 11.9807 41.585 12.2108C41.699 12.986 41.8046 13.7631 41.9068 14.5417C41.9258 14.6863 41.9448 14.8309 41.9644 14.9798C42.1544 16.4345 42.3394 17.8903 42.5205 19.3473C42.8194 21.7437 43.1505 24.1269 43.5035 26.5078C43.8495 28.8436 44.1861 31.1796 44.4959 33.5261C45.6017 41.8548 46.7842 50.0344 48.6595 58.0844C48.6997 58.2582 48.7399 58.432 48.7814 58.6111C48.8572 58.9383 48.9339 59.2652 49.0113 59.5916C49.1789 60.3146 49.2679 60.8537 49.2679 61.625C48.6847 61.9282 48.1406 62.1211 47.5257 62.229C47.3505 62.26 47.1753 62.291 46.9948 62.3229C46.8002 62.3557 46.6057 62.3884 46.4111 62.4209C46.2587 62.447 46.2587 62.447 46.1032 62.4737C43.2328 62.9648 40.3548 63.3552 37.478 63.7569C35.8548 63.9836 34.2319 64.213 32.609 64.444C32.4509 64.4665 32.2928 64.489 32.1299 64.5122C29.7023 64.8587 27.2789 65.2371 24.8572 65.6615C21.7375 66.2066 18.6134 66.5765 15.4794 66.9048C14.5129 67.0063 13.547 67.1154 12.5814 67.2313C12.4561 67.2463 12.3308 67.2613 12.2017 67.2768C11.7314 67.3332 11.261 67.3899 10.7908 67.4474C10.4812 67.4852 10.1717 67.5223 9.8621 67.5593C9.60471 67.5906 9.60471 67.5906 9.34212 67.6225C7.95618 67.7479 7.95617 67.7479 7.55498 67.4584C7.43715 66.835 7.43715 66.835 7.32946 66.0261C7.3108 65.8861 7.29213 65.7462 7.2729 65.602C7.12094 64.4211 7.02773 63.2408 6.97764 62.0417C6.83326 62.0226 6.68888 62.0036 6.54012 61.9839C5.54045 61.8035 4.56441 61.4284 3.58576 61.0912C3.38242 61.0218 3.17907 60.9525 2.97571 60.8832C2.48129 60.7147 1.98704 60.5452 1.49289 60.375C1.50088 60.2179 1.50887 60.0609 1.5171 59.899C1.55437 59.1636 1.59129 58.4282 1.62821 57.6927C1.64077 57.4459 1.65332 57.1991 1.66626 56.9448C1.83563 53.5586 1.95292 50.1755 2.00709 46.7813C2.0101 46.5968 2.01311 46.4123 2.01621 46.2222C2.12336 39.4855 2.15832 32.732 1.9259 26C1.91736 25.7517 1.90883 25.5035 1.90003 25.2477C1.75105 21.1876 1.51754 17.083 0.713777 13.1694C0.596481 12.4908 0.594772 11.9035 0.626879 11.2084C1.57268 10.7321 2.51825 10.6655 3.51359 10.5834C3.4868 10.455 3.46 10.3266 3.4324 10.1944C3.36925 9.75002 3.36925 9.75002 3.51359 9.30732C4.05242 8.57817 4.71165 8.47805 5.42603 8.46096C5.96729 8.50002 5.96729 8.50002 6.4003 8.70836C6.31695 8.58805 6.23359 8.46773 6.14771 8.34377C6.04054 8.18909 5.93337 8.0344 5.82296 7.87502C5.71579 7.76331 5.60862 7.65159 5.4982 7.53648C5.08957 6.73601 5.16274 5.91687 5.24562 4.95836C5.38567 4.26348 5.48608 3.87994 5.91881 3.49433C6.92133 2.86882 7.87077 2.90019 8.89009 3.4219C9.56848 3.85964 9.92867 4.22654 10.2974 5.16669C10.3941 5.82513 10.4031 6.38493 10.2974 7.04169C9.97718 7.64505 9.73112 7.98364 9.25093 8.29169C9.1259 8.39482 9.1259 8.39482 8.99834 8.50002C8.90667 9.02696 8.90667 9.02696 8.854 9.54169C9.03529 9.51656 9.03529 9.51656 9.22023 9.49093C17.6067 8.33729 25.9844 8.22978 34.4014 8.08336C34.2272 7.7909 34.2272 7.7909 34.0496 7.49254C33.7201 6.93923 33.5354 6.54797 33.5354 5.79169C33.7 5.34898 33.7 5.34898 33.9684 4.95836C34.8949 4.72764 35.8335 4.91456 36.7108 5.37502C36.5917 5.20315 36.4726 5.03127 36.3499 4.85419C35.9868 4.22134 35.8971 3.72002 35.9372 2.87991C36.0438 2.01347 36.2238 1.26812 36.6797 0.651717C37.2758 0.13582 37.916 0.260666 38.5871 0.375024ZM20.2109 9.48935C19.7419 9.55272 19.2725 9.60497 18.8029 9.65613C14.7803 9.97949 14.7803 9.97949 10.8747 11.2084C10.839 11.3716 10.8033 11.5349 10.7664 11.7031C10.5553 12.343 10.3524 12.5117 9.90156 12.7676C9.49799 12.9006 9.12323 12.878 8.70967 12.875C8.13455 12.9209 7.92003 12.9731 7.50762 13.5684C7.07234 14.5236 6.7684 15.2498 6.83331 16.4167C6.69041 16.4167 6.54752 16.4167 6.4003 16.4167C6.47175 16.2104 6.47175 16.2104 6.54464 16C6.55863 15.5924 6.56337 15.1841 6.56268 14.7761C6.56305 14.5575 6.56342 14.3389 6.5638 14.1136C6.54752 13.5924 6.50496 13.163 6.4003 12.6667C4.80241 12.6775 3.29471 13.4608 1.78156 14.125C1.96264 15.7533 2.16696 17.3704 2.39894 18.9851C2.44484 19.3078 2.44484 19.3078 2.49167 19.637C2.58844 20.3171 2.68563 20.9971 2.78289 21.6771C3.18655 24.5031 3.58705 27.3282 3.9466 30.1667C3.97824 30.4113 4.00988 30.656 4.04248 30.9081C4.36794 33.4266 4.68787 35.9339 4.86152 38.4847C4.94555 39.6916 5.09395 40.8648 5.25689 42.0539C5.44747 43.485 5.60068 44.9257 5.75981 46.3646C5.7751 46.5028 5.79039 46.6411 5.80614 46.7835C5.88021 47.4536 5.95424 48.1237 6.02826 48.7938C6.12646 49.6748 6.22815 50.5548 6.33035 51.4349C6.45315 52.5001 6.57101 53.5665 6.68897 54.6328C6.71436 54.8618 6.73974 55.0907 6.7659 55.3266C6.89056 56.4532 7.0134 57.5801 7.131 58.7084C7.21913 59.5504 7.3195 60.3875 7.42566 61.2251C7.66991 63.1568 7.8441 65.0894 7.98799 67.0417C8.8453 66.9194 9.70226 66.793 10.5589 66.6616C16.3884 65.7683 16.3884 65.7683 18.8763 65.5703C21.4181 65.3653 23.935 64.903 26.4588 64.4357C29.2262 63.924 31.992 63.525 34.7721 63.1875C36.5659 62.9692 38.3573 62.7291 40.1477 62.4584C40.3156 62.433 40.3156 62.433 40.4868 62.4071C40.5983 62.3903 40.7098 62.3734 40.8247 62.356C41.0512 62.3218 41.2777 62.2875 41.5043 62.2533C41.6167 62.2363 41.7291 62.2192 41.845 62.2017C43.3052 61.9817 44.7666 61.7776 46.2279 61.5729C46.36 61.5544 46.4922 61.5359 46.6284 61.5168C47.3639 61.4137 48.0994 61.3109 48.8349 61.2084C48.7944 61.0642 48.754 60.9201 48.7122 60.7716C47.534 56.4774 46.6301 52.0802 45.858 47.6016C45.8209 47.3877 45.7837 47.1738 45.7454 46.9534C45.3854 44.8695 45.0498 42.8106 44.8647 40.6771C44.7314 39.3305 44.5196 38.0054 44.3196 36.6767C43.94 34.1529 43.575 31.6284 43.26 29.086C43.0356 27.2771 42.7783 25.4863 42.4932 23.6953C42.123 21.3663 41.8255 19.0277 41.5455 16.6736C41.2773 14.4193 40.9809 12.182 40.6078 9.95836C40.5014 10.0604 40.395 10.1625 40.2853 10.2676C39.8876 10.5822 39.714 10.659 39.2727 10.6354C39.1039 10.6314 39.1039 10.6314 38.9316 10.6273C38.5871 10.5834 38.5871 10.5834 38.2652 10.4613C37.8965 10.3313 37.6637 10.2733 37.2881 10.375C36.7396 10.9883 36.2907 11.6937 35.8447 12.4584C35.8924 12.6646 35.94 12.8709 35.9891 13.0834C36.4158 13.3913 36.8179 13.3043 37.2881 13.2917C37.2881 13.4292 37.2881 13.5667 37.2881 13.7084C36.3266 13.4931 35.6258 13.0655 34.8344 12.25C35.0725 12.3875 35.3107 12.525 35.5561 12.6667C35.9561 11.536 36.0874 10.6047 35.9891 9.33336C35.7422 8.97708 35.43 9.0975 35.1007 9.09447C34.9406 9.09462 34.9406 9.09462 34.7772 9.09476C34.6652 9.09406 34.5532 9.09336 34.4378 9.09264C34.0637 9.09065 33.6896 9.09025 33.3155 9.09003C33.0532 9.08936 32.7909 9.08866 32.5286 9.08793C31.9751 9.08668 31.4215 9.0863 30.8679 9.08642C30.3075 9.08644 29.7471 9.08503 29.1866 9.08215C26.1834 9.06694 23.2035 9.07866 20.2109 9.48935Z" fill="#0B0A05"/>
<path d="M38.5871 0.375024C39.6195 0.749305 40.3169 1.60036 40.8965 2.87502C41.1038 3.68946 41.054 4.05022 40.9055 4.89325C40.5582 5.69837 40.3371 5.84702 39.7328 6.12291C39.4531 6.20836 39.4531 6.20836 39.0201 6.20836C39.0571 7.0517 39.0571 7.05171 39.1645 7.87502C39.4168 8.14412 39.4168 8.14412 39.7418 8.29169C40.1387 8.81252 40.1387 8.81252 40.4635 9.33336C40.4635 9.47086 40.4635 9.60836 40.4635 9.75002C40.5588 9.75002 40.654 9.75002 40.7522 9.75002C40.7522 10.2313 40.7522 10.7125 40.7522 11.2084C40.7045 11.2084 40.6569 11.2084 40.6078 11.2084C40.5602 10.8646 40.5126 10.5209 40.4635 10.1667C40.395 10.2698 40.3266 10.3729 40.256 10.4792C39.6433 10.9969 38.9405 10.9155 38.2596 10.6769C37.9006 10.5581 37.6535 10.4986 37.2881 10.5834C36.779 11.118 36.367 11.7323 35.9891 12.4584C35.9891 12.5959 35.9891 12.7334 35.9891 12.875C36.4178 13.0125 36.8464 13.15 37.2881 13.2917C37.2881 13.4292 37.2881 13.5667 37.2881 13.7084C36.1821 13.6577 35.5606 13.2214 34.6901 12.25C34.7853 12.1813 34.8806 12.1125 34.9787 12.0417C35.1216 12.1792 35.2645 12.3167 35.4118 12.4584C35.7961 11.9035 35.8367 11.4889 35.8589 10.7168C35.8572 10.5525 35.8555 10.3881 35.8538 10.2188C35.8525 10.0523 35.8512 9.88577 35.8498 9.71422C35.8482 9.58853 35.8465 9.46285 35.8448 9.33336C34.3313 9.32358 32.8178 9.31624 31.3043 9.31177C30.601 9.30962 29.8978 9.30672 29.1946 9.30192C26.1883 9.28198 23.2064 9.2844 20.2108 9.69747C19.7418 9.76111 19.2725 9.81338 18.8029 9.86449C18.3189 9.9176 17.8354 9.97691 17.3518 10.0365C17.251 10.0489 17.1502 10.0613 17.0464 10.0741C15.2189 10.3029 13.4154 10.6672 11.6102 11.1418C11.3077 11.2084 11.3077 11.2084 10.8747 11.2084C10.8747 11.363 10.8747 11.5177 10.8747 11.6771C10.713 12.3188 10.6487 12.3966 10.2523 12.7188C9.71602 13.0786 9.27876 13.1073 8.69164 13.1094C8.15046 13.1469 7.92988 13.1651 7.54541 13.7295C7.17422 14.6048 6.94833 15.4024 6.83332 16.4167C6.69043 16.4167 6.54754 16.4167 6.40031 16.4167C6.40031 15.1792 6.40031 13.9417 6.40031 12.6667C5.99843 12.7956 5.59655 12.9245 5.18248 13.0573C4.28941 13.3438 3.39633 13.6302 2.50326 13.9167C2.45563 13.7792 2.40799 13.6417 2.35892 13.5C1.92168 13.363 1.92168 13.363 1.49291 13.2917C1.44528 12.8104 1.39765 12.3292 1.34857 11.8334C2.30119 11.6271 3.2538 11.4209 4.23528 11.2084C4.09239 10.9334 3.9495 10.6584 3.80228 10.375C3.78423 9.84117 3.78423 9.84117 3.94661 9.33336C4.74599 8.62143 5.48006 8.6362 6.40031 8.70836C6.31696 8.58805 6.23361 8.46773 6.14773 8.34377C6.04056 8.18909 5.93339 8.0344 5.82297 7.87502C5.7158 7.76331 5.60863 7.65159 5.49822 7.53648C5.08959 6.73601 5.16275 5.91687 5.24563 4.95836C5.38568 4.26348 5.48609 3.87994 5.91882 3.49433C6.92134 2.86882 7.87079 2.90019 8.8901 3.4219C9.5685 3.85964 9.92869 4.22654 10.2974 5.16669C10.3941 5.82513 10.4032 6.38493 10.2974 7.04169C9.97719 7.64505 9.73113 7.98364 9.25094 8.29169C9.12591 8.39482 9.12591 8.39482 8.99835 8.50002C8.90669 9.02696 8.90669 9.02696 8.85402 9.54169C9.0353 9.51656 9.0353 9.51656 9.22025 9.49093C17.6067 8.33729 25.9844 8.22978 34.4014 8.08336C34.2273 7.7909 34.2273 7.7909 34.0496 7.49254C33.7201 6.93923 33.5354 6.54797 33.5354 5.79169C33.7 5.34898 33.7 5.34898 33.9684 4.95836C34.8949 4.72764 35.8335 4.91456 36.7108 5.37502C36.5917 5.20315 36.4726 5.03127 36.3499 4.85419C35.9868 4.22134 35.8971 3.72002 35.9372 2.87991C36.0438 2.01347 36.2238 1.26812 36.6798 0.651717C37.2758 0.13582 37.916 0.260666 38.5871 0.375024Z" fill="#050302"/>
<path d="M2.64761 24.3333C2.89283 24.9691 3.00597 25.5413 3.09467 26.2562C3.12215 26.4742 3.14963 26.6923 3.17794 26.9169C3.20666 27.1528 3.23538 27.3886 3.26498 27.6317C3.29558 27.8781 3.32618 28.1245 3.35771 28.3784C3.42256 28.9024 3.48695 29.4266 3.55094 29.9508C3.64692 30.7361 3.74464 31.5209 3.8426 32.3057C4.1592 34.8652 4.44701 37.4218 4.66937 40.002C4.80979 41.6296 4.99131 43.2394 5.19152 44.8541C5.26649 45.4706 5.3407 46.0872 5.41479 46.7039C5.43482 46.8704 5.45485 47.0368 5.47548 47.2083C5.7571 49.5581 6.02511 51.9112 6.29288 54.2644C6.35237 54.7868 6.41205 55.3091 6.47191 55.8313C6.55638 56.5686 6.64025 57.306 6.72396 58.0434C6.74962 58.2666 6.77529 58.4898 6.80174 58.7198C6.82498 58.9259 6.84822 59.1319 6.87217 59.3442C6.89263 59.524 6.9131 59.7037 6.93418 59.8888C6.97767 60.375 6.97767 60.375 6.97767 61.2083C6.61678 61.0871 6.25595 60.9655 5.89515 60.8437C5.79747 60.811 5.69979 60.7782 5.59915 60.7444C4.46782 60.3619 3.34146 59.9505 2.2146 59.5416C2.2197 59.4283 2.22481 59.3149 2.23007 59.1981C2.57687 51.4658 2.80062 43.7741 2.80998 36.026C2.81058 35.6989 2.81058 35.6989 2.81119 35.3651C2.81418 33.1487 2.79869 30.9512 2.67974 28.7407C2.63523 27.8303 2.63136 26.9252 2.63859 26.013C2.63924 25.8482 2.63989 25.6835 2.64056 25.5137C2.64221 25.1203 2.6448 24.7268 2.64761 24.3333Z" fill="#CCB06C"/>
<path d="M38.5872 0.375024C39.6195 0.749305 40.3169 1.60036 40.8965 2.87502C41.1038 3.68946 41.054 4.05022 40.9055 4.89325C40.5582 5.69837 40.3371 5.84702 39.7328 6.12291C39.4532 6.20836 39.4532 6.20836 39.0202 6.20836C39.057 7.0518 39.057 7.05181 39.1645 7.87502C39.4194 8.17186 39.4194 8.17186 39.7418 8.29169C40.0666 8.56513 40.0666 8.56513 40.3192 8.91669C40.3733 9.45054 40.3733 9.45054 40.3192 9.95836C39.9445 10.4992 39.7769 10.4433 39.2547 10.4531C37.5316 10.4027 35.8281 9.343 34.5334 7.70168C34.172 7.13968 33.9861 6.79284 33.9053 6.02607C33.9684 5.58336 33.9684 5.58336 34.1128 5.37502C34.3066 5.35704 34.501 5.35272 34.6952 5.35468C34.8119 5.35535 34.9287 5.35602 35.049 5.35671C35.1717 5.35846 35.2944 5.3602 35.4208 5.362C35.5441 5.36294 35.6673 5.36388 35.7943 5.36485C36.0998 5.36731 36.4053 5.37105 36.7108 5.37502C36.5932 5.18569 36.4756 4.99636 36.3545 4.80129C36.0079 4.24321 35.9879 4.11151 35.9169 3.30471C35.9654 2.29141 36.1528 1.36414 36.6798 0.651717C37.2758 0.13582 37.916 0.260666 38.5872 0.375024Z" fill="#9E1D1D"/>
<path d="M6.40031 8.70831C6.35268 9.39581 6.30505 10.0833 6.25598 10.7916C6.90222 11.433 6.90222 11.433 7.64521 11.625C8.07357 11.3646 8.37219 11.0434 8.70968 10.5833C8.75731 10.3771 8.80494 10.1708 8.85402 9.95831C9.57265 10.0571 10.0358 10.3166 10.586 11C10.7123 11.6771 10.7123 11.6771 10.7304 12.25C10.0041 12.875 9.54131 13.1139 8.69164 13.1093C8.15046 13.1469 7.92988 13.1651 7.54541 13.7295C7.17422 14.6048 6.94833 15.4024 6.83332 16.4166C6.69043 16.4166 6.54754 16.4166 6.40031 16.4166C6.40031 15.1791 6.40031 13.9416 6.40031 12.6666C5.99843 12.7955 5.59655 12.9245 5.18248 13.0573C4.28941 13.3437 3.39633 13.6302 2.50326 13.9166C2.45563 13.7791 2.40799 13.6416 2.35892 13.5C1.92168 13.3629 1.92168 13.3629 1.49291 13.2916C1.44528 12.8104 1.39765 12.3291 1.34857 11.8333C2.30119 11.6271 3.2538 11.4208 4.23528 11.2083C4.09239 10.9333 3.9495 10.6583 3.80228 10.375C3.78423 9.84112 3.78423 9.84112 3.94661 9.33331C4.75878 8.60998 5.46106 8.65259 6.40031 8.70831Z" fill="#A41E1E"/>
<path d="M34.6636 5.35468C34.8919 5.35607 35.1203 5.35856 35.3486 5.362C35.465 5.36294 35.5814 5.36388 35.7013 5.36485C35.9897 5.36731 36.2781 5.37105 36.5665 5.37502C36.5426 5.5426 36.5188 5.71018 36.4943 5.88283C36.4175 6.36011 36.4175 6.36011 36.4221 6.62502C36.6126 6.21252 36.8032 5.80002 36.9995 5.37502C37.6663 5.58127 38.3331 5.78752 39.0202 6.00002C39.039 6.47474 39.0578 6.94946 39.0765 7.42417C39.1335 7.90867 39.1335 7.90867 39.4396 8.12649C39.5394 8.181 39.6391 8.23552 39.7418 8.29169C40.0666 8.56512 40.0666 8.56512 40.3192 8.91669C40.3733 9.45054 40.3733 9.45054 40.3192 9.95835C39.9445 10.4992 39.7769 10.4433 39.2547 10.4531C37.5316 10.4027 35.8281 9.343 34.5334 7.70168C34.172 7.13968 33.9861 6.79284 33.9053 6.02606C34.015 5.25648 34.0755 5.3764 34.6636 5.35468Z" fill="#A21D1D"/>
<path d="M4.23528 11C4.51019 11.1447 4.78027 11.3087 5.04717 11.4818C6.16649 12.2065 7.14415 12.5276 8.36689 12.4974C8.47145 12.4973 8.57601 12.4971 8.68375 12.497C9.2842 12.4899 9.85041 12.4183 10.4417 12.25C10.1455 12.7183 10.0077 12.8755 9.5757 13.0833C9.44676 13.0809 9.31782 13.0785 9.18498 13.076C8.70382 13.0699 8.3079 13.1034 7.84367 13.2917C7.24151 14.1722 6.97002 15.2111 6.83332 16.4167C6.69043 16.4167 6.54754 16.4167 6.40031 16.4167C6.40031 15.1792 6.40031 13.9417 6.40031 12.6667C5.99843 12.7956 5.59655 12.9245 5.18248 13.0573C4.28941 13.3438 3.39633 13.6302 2.50326 13.9167C2.45563 13.7792 2.40799 13.6417 2.35892 13.5C1.92168 13.363 1.92168 13.363 1.49291 13.2917C1.44528 12.8104 1.39765 12.3292 1.34857 11.8333C1.53277 11.7906 1.71697 11.7479 1.90674 11.7039C2.14768 11.6473 2.38862 11.5906 2.62955 11.5339C2.75104 11.5058 2.87254 11.4777 2.99772 11.4488C3.114 11.4213 3.23029 11.3938 3.3501 11.3654C3.45743 11.3403 3.56476 11.3152 3.67535 11.2894C3.95799 11.2224 3.95799 11.2224 4.23528 11Z" fill="#1D150B"/>
<path d="M37.8654 0.895813C38.89 0.913828 39.5158 1.37227 40.3192 2.24998C40.4276 2.3668 40.5361 2.48362 40.6479 2.60398C40.7299 2.69341 40.812 2.78284 40.8965 2.87498C40.8441 3.42312 40.7873 3.66098 40.503 4.0436C39.9034 4.57295 39.2661 4.44983 38.5871 4.33331C37.8672 4.06374 37.3087 3.71593 36.7559 2.99217C36.5664 2.45831 36.5664 2.45831 36.5845 1.89842C36.8435 0.910438 37.1875 0.923508 37.8654 0.895813Z" fill="#A61E1E"/>
<path d="M9.25095 4.17708C9.82228 4.60803 9.82228 4.60803 9.99011 5.17399C10.0087 5.58333 10.0087 5.58333 9.76515 6.03906C8.92529 6.9892 7.70443 6.66515 6.69802 6.57291C6.1814 6.3903 5.98134 6.21248 5.67865 5.58333C5.6155 5.04948 5.6155 5.04948 5.67865 4.54167C6.44178 3.073 8.24703 3.49542 9.25095 4.17708Z" fill="#A81F1F"/>
<path d="M38.5871 0.375023C39.5206 0.746486 40.1176 1.42493 40.7522 2.45836C40.7045 2.59586 40.6569 2.73336 40.6078 2.87502C40.5312 2.78962 40.4545 2.70422 40.3755 2.61623C40.2736 2.50398 40.1716 2.39172 40.0666 2.27606C39.9661 2.16488 39.8656 2.0537 39.7621 1.93915C39.1247 1.29113 38.7096 1.15113 37.9196 1.15627C37.754 1.1552 37.5884 1.15412 37.4178 1.15302C36.9812 1.14586 36.9812 1.14586 36.7108 1.62502C36.7307 2.30075 36.7568 2.72171 37.0806 3.22659C38.102 4.02039 39.0126 4.36758 40.1748 4.12502C40.5286 3.8986 40.7448 3.66131 41.0408 3.29169C40.9718 4.78625 40.9718 4.78625 40.68 5.45315C40.169 5.9326 39.6306 6.16803 39.0201 6.20836C38.6909 6.00816 38.6909 6.00816 38.4428 5.79169C38.5734 5.77638 38.5734 5.77638 38.7067 5.76077C38.822 5.74519 38.9374 5.72961 39.0562 5.71356C39.1701 5.69906 39.284 5.68456 39.4013 5.66962C39.7542 5.58022 40.0086 5.4196 40.3192 5.16669C40.3192 4.96044 40.3192 4.75419 40.3192 4.54169C40.1763 4.55136 40.0334 4.56103 39.8862 4.57099C38.3638 4.64332 37.4426 4.34622 36.2778 2.87502C36.2778 3.35627 36.2778 3.83752 36.2778 4.33336C36.1825 4.26461 36.0873 4.19586 35.9891 4.12502C35.9438 2.88297 36.0049 2.09678 36.4221 1.00002C37.0683 0.126456 37.7481 0.228974 38.5871 0.375023Z" fill="#0B0202"/>
<path d="M6.68904 8.29169C7.30824 8.36044 7.92744 8.42919 8.5654 8.50002C8.65286 10.4189 8.65286 10.4189 8.26771 11.1432C7.71903 11.4971 7.4094 11.4239 6.83338 11.2084C6.69048 11.0709 6.54759 10.9334 6.40037 10.7917C6.33358 9.76982 6.41847 9.26803 6.68904 8.29169Z" fill="#AB1F1F"/>
<path d="M35.8447 9.125C36.3823 9.25878 36.86 9.484 37.3693 9.76302C38.2345 10.185 39.1231 10.4454 40.0305 10.1667C40.2995 9.76667 40.2995 9.76667 40.4635 9.33333C40.4635 9.47083 40.4635 9.60833 40.4635 9.75C40.5587 9.75 40.654 9.75 40.7522 9.75C40.7522 10.2312 40.7522 10.7125 40.7522 11.2083C40.7045 11.2083 40.6569 11.2083 40.6078 11.2083C40.5364 10.6927 40.5364 10.6927 40.4635 10.1667C40.395 10.2698 40.3265 10.3729 40.256 10.4792C39.6433 10.9968 38.9405 10.9154 38.2595 10.6769C37.9006 10.5581 37.6535 10.4986 37.2881 10.5833C36.779 11.118 36.367 11.7323 35.9891 12.4583C35.9891 12.5958 35.9891 12.7333 35.9891 12.875C36.6321 13.0812 36.6321 13.0812 37.2881 13.2917C37.2881 13.4292 37.2881 13.5667 37.2881 13.7083C36.1821 13.6577 35.5606 13.2214 34.6901 12.25C34.7853 12.1812 34.8806 12.1125 34.9787 12.0417C35.1216 12.1792 35.2645 12.3167 35.4117 12.4583C35.8064 11.8887 35.838 11.4646 35.8588 10.6712C35.8572 10.4875 35.8555 10.3038 35.8538 10.1146C35.8525 9.92874 35.8512 9.7429 35.8498 9.55143C35.8481 9.41071 35.8465 9.26999 35.8447 9.125Z" fill="#1E140C"/>
<path d="M9.86437 6C9.912 6 9.95963 6 10.0087 6C10.0809 6.45573 10.0809 6.45573 10.0087 7.04167C9.55182 7.78106 9.03419 8.05139 8.36294 8.17041C7.41757 8.20099 6.64719 8.15001 5.82297 7.45833C5.67864 7.25 5.67864 7.25 5.66962 6.71615C5.67259 6.54857 5.67557 6.38099 5.67864 6.20833C5.91084 6.36302 5.91084 6.36302 6.14773 6.52083C7.14417 7.05636 8.24261 7.05954 9.24192 6.53385C9.6885 6.27731 9.6885 6.27731 9.86437 6Z" fill="#A61E1E"/>
<path d="M4.81262 11.7161C4.90789 11.8235 5.00315 11.931 5.1013 12.0416C5.1013 12.1104 5.1013 12.1791 5.1013 12.25C4.93794 12.3077 4.77458 12.3655 4.60627 12.4249C4.39239 12.5011 4.17852 12.5774 3.96465 12.6536C3.85693 12.6916 3.7492 12.7296 3.63821 12.7688C3.056 12.9692 3.056 12.9692 2.50326 13.2916C2.16652 13.3 1.82963 13.3006 1.49291 13.2916C1.44528 12.8104 1.39765 12.3291 1.34857 11.8333C4.02752 11.1731 4.02752 11.1731 4.81262 11.7161Z" fill="#CEAF47"/>
<path d="M5.67865 7.25C5.91532 7.39824 5.91532 7.39824 6.15676 7.54948C6.79569 7.90088 7.4071 7.98206 8.08612 8.03939C8.42102 8.08333 8.42102 8.08333 8.7097 8.29167C8.85202 9.0569 8.89922 9.79396 8.85403 10.5833C8.56583 11.2649 8.13717 11.523 7.64522 11.8594C7.02569 11.8168 6.55804 11.4016 6.11166 10.7917C6.03047 10.1797 6.03047 10.1797 6.11166 9.54167C6.13547 9.30964 6.15929 9.0776 6.18382 8.83854C6.20764 8.65807 6.23145 8.4776 6.25599 8.29167C6.1131 8.14987 6.1131 8.14987 5.96732 8.00521C5.87206 7.89349 5.7768 7.78177 5.67865 7.66667C5.67865 7.52917 5.67865 7.39167 5.67865 7.25ZM6.689 8.29167C6.41763 9.2709 6.30828 9.76679 6.40033 10.7917C6.68618 11.2512 6.68618 11.2512 7.122 11.4167C7.61231 11.3923 7.97369 11.3742 8.37761 10.952C8.63298 10.4506 8.60902 10.1176 8.59242 9.5026C8.58349 9.17174 8.57456 8.84089 8.56536 8.5C7.94616 8.43125 7.32696 8.3625 6.689 8.29167Z" fill="#5B1010"/>
<path d="M40.8965 3.29169C41.085 3.91005 41.0273 4.19917 40.9055 4.86721C40.7024 5.48974 40.5049 5.73346 40.0666 6.00002C39.4782 6.25954 39.0372 6.19663 38.4428 6.00002C38.4428 5.93127 38.4428 5.86252 38.4428 5.79169C38.5299 5.78148 38.617 5.77128 38.7067 5.76076C38.822 5.74519 38.9374 5.72961 39.0562 5.71356C39.1701 5.69906 39.284 5.68456 39.4013 5.66962C39.7542 5.58021 40.0086 5.4196 40.3192 5.16669C40.3192 4.96044 40.3192 4.75419 40.3192 4.54169C40.1746 4.54894 40.03 4.55619 39.8811 4.56366C37.9875 4.62953 37.9875 4.62953 37.1438 3.91669C37.2391 3.77919 37.3343 3.64169 37.4325 3.50002C37.5902 3.60315 37.748 3.70627 37.9106 3.81252C38.6571 4.21322 39.3872 4.29377 40.1748 4.12502C40.6291 3.75536 40.6291 3.75536 40.8965 3.29169Z" fill="#0F0202"/>
<path d="M8.13239 3.08334C8.18002 3.22084 8.22765 3.35834 8.27673 3.50001C8.16007 3.52283 8.04341 3.54566 7.92322 3.56918C7.69185 3.61873 7.69185 3.61873 7.45582 3.66928C7.30344 3.7007 7.15106 3.73212 6.99406 3.76449C6.52051 3.92486 6.20648 4.11028 5.82302 4.54167C5.7628 5.29709 5.7628 5.29709 5.82302 6C5.72776 6 5.6325 6 5.53435 6C5.58198 6.55 5.62961 7.1 5.67869 7.66667C5.37743 7.31352 5.25636 7.12948 5.18817 6.56885C5.20079 4.59213 5.20079 4.59213 5.67869 3.70834C6.44614 3.02445 7.25516 3.0042 8.13239 3.08334Z" fill="#020000"/>
<path d="M9.86437 5.58331C9.86437 5.78956 9.86437 5.99581 9.86437 6.20831C8.93476 7.17739 7.94569 7.16725 6.83332 7.04165C6.4558 6.88518 6.16987 6.68976 5.82297 6.41665C5.72771 6.6229 5.63245 6.82915 5.5343 7.04165C5.5343 6.6979 5.5343 6.35415 5.5343 5.99998C5.67719 5.93123 5.82009 5.86248 5.96731 5.79165C6.06257 5.92915 6.15783 6.06665 6.25598 6.20831C7.33336 6.53918 8.56627 6.70859 9.5757 5.99998C9.67096 5.86248 9.76622 5.72498 9.86437 5.58331Z" fill="#390A0A"/>
<path d="M9.94556 4.24219C10.2792 5.05878 10.1971 5.9086 10.153 6.83334C10.1054 6.83334 10.0578 6.83334 10.0087 6.83334C10.015 6.71007 10.0214 6.5868 10.0279 6.4598C10.0266 5.90114 9.99702 5.48508 9.86437 4.95834C9.05178 3.94592 8.01715 3.74345 6.97766 3.70834C6.97766 3.63959 6.97766 3.57084 6.97766 3.5C8.12898 3.20984 8.94015 3.35731 9.94556 4.24219Z" fill="#1C0505"/>
<path d="M36.2778 4.33331C36.9619 4.71559 37.6293 5.14986 38.2985 5.58331C38.2985 5.65206 38.2985 5.72081 38.2985 5.79165C37.8698 5.7229 37.4411 5.65415 36.9994 5.58331C36.6418 6.34642 36.4958 6.96059 36.4221 7.87498C36.3268 7.80623 36.2316 7.73748 36.1334 7.66665C36.2119 6.7157 36.3925 6.00564 36.7108 5.16665C36.5679 4.89165 36.425 4.61665 36.2778 4.33331Z" fill="#3C0B0B"/>
<path d="M37.2881 3.5C37.4012 3.56768 37.4012 3.56768 37.5165 3.63672C38.452 4.14752 39.5566 4.51646 40.5103 3.9126C40.5901 3.84519 40.6699 3.77778 40.7522 3.70833C40.7046 4.12083 40.6569 4.53333 40.6079 4.95833C40.5126 4.82083 40.4173 4.68333 40.3192 4.54167C39.9735 4.52779 39.6273 4.53548 39.2818 4.55469C38.4639 4.58389 37.8577 4.51982 37.1438 3.91667C37.1914 3.77917 37.2391 3.64167 37.2881 3.5Z" fill="#3A0A0A"/>
<path d="M34.3501 4.90302C34.501 4.90409 34.6518 4.90516 34.8073 4.90627C35.032 4.90466 35.032 4.90466 35.2612 4.90302C35.7032 4.9587 36.0221 5.10608 36.4221 5.37502C35.9223 5.59736 35.4636 5.60455 34.9426 5.59637C34.7871 5.59449 34.6315 5.59261 34.4713 5.59068C34.3529 5.58826 34.2346 5.58584 34.1127 5.58335C34.0174 5.85835 33.9222 6.13335 33.824 6.41669C33.7338 5.9219 33.7338 5.9219 33.6797 5.37502C33.9684 4.95835 33.9684 4.95835 34.3501 4.90302Z" fill="#230606"/>
<path d="M12.0294 10.1667C12.0294 10.2354 12.0294 10.3042 12.0294 10.375C11.7883 10.4394 11.7883 10.4394 11.5423 10.5052C10.9807 10.7117 10.9807 10.7117 10.8116 11.4427C10.7848 11.6403 10.758 11.838 10.7304 12.0417C10.6828 12.0417 10.6351 12.0417 10.5861 12.0417C10.5236 11.7452 10.5236 11.7452 10.4598 11.4427C10.3308 10.7808 10.3308 10.7808 10.0087 10.375C10.6831 10.1238 11.3388 10.1471 12.0294 10.1667Z" fill="#3D2E15"/>
<path d="M34.6901 12.0417C34.8597 12.1513 34.8597 12.1513 35.0329 12.263C35.2204 12.3597 35.2204 12.3597 35.4117 12.4584C35.507 12.3896 35.6023 12.3209 35.7004 12.25C35.7748 12.3832 35.8493 12.5164 35.9259 12.6537C36.3729 13.1996 36.7137 13.2279 37.2881 13.2917C37.2881 13.4292 37.2881 13.5667 37.2881 13.7084C36.2017 13.6586 35.5289 13.2575 34.6901 12.25C34.6901 12.1813 34.6901 12.1125 34.6901 12.0417Z" fill="#7E703C"/>
<path d="M5.67865 7.25C5.81987 7.33661 5.81987 7.33661 5.96394 7.42497C6.63748 7.82789 7.25627 8.18049 7.98802 8.29167C7.98802 8.36042 7.98802 8.42917 7.98802 8.5C7.01375 8.52604 7.01375 8.52604 6.689 8.29167C6.64137 8.49792 6.59374 8.70417 6.54466 8.91667C5.84103 7.95313 5.84103 7.95313 5.67865 7.25Z" fill="#340909"/>
<path d="M11.5964 10.4401C11.8851 10.5833 11.8851 10.5833 12.1737 11C11.7927 11.0688 11.4116 11.1375 11.019 11.2083C11.019 11.0021 11.019 10.7958 11.019 10.5833C11.3077 10.375 11.3077 10.375 11.5964 10.4401Z" fill="#0F0D06"/>
<path d="M10.153 5.16669C10.2006 5.16669 10.2483 5.16669 10.2973 5.16669C10.3052 5.46608 10.3108 5.76559 10.3154 6.06512C10.3187 6.2319 10.3221 6.39867 10.3255 6.5705C10.2973 7.04169 10.2973 7.04169 10.0087 7.66669C9.81815 7.59794 9.62763 7.52919 9.43134 7.45835C9.52362 7.3896 9.6159 7.32085 9.71099 7.25002C10.161 6.62017 10.1127 6.0549 10.153 5.16669Z" fill="#070101"/>
<path d="M6.54467 14.125C6.5923 14.125 6.63993 14.125 6.689 14.125C6.73663 14.8812 6.78426 15.6375 6.83334 16.4167C6.69044 16.4167 6.54755 16.4167 6.40033 16.4167C6.44796 15.6604 6.49559 14.9042 6.54467 14.125Z" fill="#413A1F"/>
</g>
<defs>
<clipPath id="clip0_303_23">
<rect width="50" height="68" fill="white"/>
</clipPath>
</defs>
</svg>
