<svg width="24" height="24" viewBox="0 0 24 24" fill="none" xmlns="http://www.w3.org/2000/svg">
<mask id="mask0_58_39" style="mask-type:alpha" maskUnits="userSpaceOnUse" x="0" y="0" width="24" height="24">
<rect width="24" height="24" fill="#D9D9D9"/>
</mask>
<g mask="url(#mask0_58_39)">
<path d="M3.55001 12L10.9 19.35C11.15 19.6 11.2708 19.8917 11.2625 20.225C11.2542 20.5583 11.125 20.85 10.875 21.1C10.625 21.35 10.3333 21.475 10 21.475C9.66668 21.475 9.37501 21.35 9.12501 21.1L1.42501 13.425C1.22501 13.225 1.07501 13 0.975012 12.75C0.875012 12.5 0.825012 12.25 0.825012 12C0.825012 11.75 0.875012 11.5 0.975012 11.25C1.07501 11 1.22501 10.775 1.42501 10.575L9.12501 2.875C9.37501 2.625 9.67085 2.50417 10.0125 2.5125C10.3542 2.52084 10.65 2.65 10.9 2.9C11.15 3.15 11.275 3.44167 11.275 3.775C11.275 4.10834 11.15 4.4 10.9 4.65L3.55001 12Z" fill="white"/>
</g>
</svg>
